<mxfile host="Electron" agent="Mozilla/5.0 (X11; Linux x86_64) AppleWebKit/537.36 (KHTML, like Gecko) draw.io/27.0.2 Chrome/134.0.6998.205 Electron/35.3.0 Safari/537.36" version="27.0.2">
  <diagram name="Page-1" id="trTxQvVM1MuwvBRWhg9D">
    <mxGraphModel dx="706" dy="632" grid="1" gridSize="10" guides="1" tooltips="1" connect="1" arrows="1" fold="1" page="1" pageScale="1" pageWidth="850" pageHeight="1100" math="0" shadow="0">
      <root>
        <mxCell id="0" />
        <mxCell id="1" parent="0" />
        <mxCell id="VccjVxZ1QOEAnE4NQ08W-267" value="" style="rounded=0;whiteSpace=wrap;html=1;" parent="1" vertex="1">
          <mxGeometry x="610" y="520" width="210" height="110" as="geometry" />
        </mxCell>
        <mxCell id="VccjVxZ1QOEAnE4NQ08W-270" value="" style="group" parent="1" vertex="1" connectable="0">
          <mxGeometry x="724" y="536" width="36" height="80" as="geometry" />
        </mxCell>
        <mxCell id="VccjVxZ1QOEAnE4NQ08W-271" value="" style="endArrow=none;html=1;rounded=0;" parent="VccjVxZ1QOEAnE4NQ08W-270" edge="1">
          <mxGeometry width="50" height="50" relative="1" as="geometry">
            <mxPoint x="8" as="sourcePoint" />
            <mxPoint x="28" as="targetPoint" />
          </mxGeometry>
        </mxCell>
        <mxCell id="VccjVxZ1QOEAnE4NQ08W-272" value="" style="endArrow=none;html=1;rounded=0;" parent="VccjVxZ1QOEAnE4NQ08W-270" edge="1">
          <mxGeometry width="50" height="50" relative="1" as="geometry">
            <mxPoint x="8" y="8" as="sourcePoint" />
            <mxPoint x="28" y="8" as="targetPoint" />
          </mxGeometry>
        </mxCell>
        <mxCell id="VccjVxZ1QOEAnE4NQ08W-273" value="" style="endArrow=none;html=1;rounded=0;" parent="VccjVxZ1QOEAnE4NQ08W-270" edge="1">
          <mxGeometry width="50" height="50" relative="1" as="geometry">
            <mxPoint x="32" y="4" as="sourcePoint" />
            <mxPoint x="28" y="8" as="targetPoint" />
          </mxGeometry>
        </mxCell>
        <mxCell id="VccjVxZ1QOEAnE4NQ08W-274" value="" style="endArrow=none;html=1;rounded=0;" parent="VccjVxZ1QOEAnE4NQ08W-270" edge="1">
          <mxGeometry width="50" height="50" relative="1" as="geometry">
            <mxPoint x="32" y="4" as="sourcePoint" />
            <mxPoint x="28" as="targetPoint" />
          </mxGeometry>
        </mxCell>
        <mxCell id="VccjVxZ1QOEAnE4NQ08W-275" value="" style="endArrow=none;html=1;rounded=0;" parent="VccjVxZ1QOEAnE4NQ08W-270" edge="1">
          <mxGeometry width="50" height="50" relative="1" as="geometry">
            <mxPoint x="8" y="8" as="sourcePoint" />
            <mxPoint x="4" y="4" as="targetPoint" />
          </mxGeometry>
        </mxCell>
        <mxCell id="VccjVxZ1QOEAnE4NQ08W-276" value="" style="endArrow=none;html=1;rounded=0;" parent="VccjVxZ1QOEAnE4NQ08W-270" edge="1">
          <mxGeometry width="50" height="50" relative="1" as="geometry">
            <mxPoint x="8" as="sourcePoint" />
            <mxPoint x="4" y="4" as="targetPoint" />
          </mxGeometry>
        </mxCell>
        <mxCell id="VccjVxZ1QOEAnE4NQ08W-277" value="" style="endArrow=none;html=1;rounded=0;" parent="VccjVxZ1QOEAnE4NQ08W-270" edge="1">
          <mxGeometry width="50" height="50" relative="1" as="geometry">
            <mxPoint x="32" y="8" as="sourcePoint" />
            <mxPoint x="36" y="12" as="targetPoint" />
          </mxGeometry>
        </mxCell>
        <mxCell id="VccjVxZ1QOEAnE4NQ08W-278" value="" style="endArrow=none;html=1;rounded=0;" parent="VccjVxZ1QOEAnE4NQ08W-270" edge="1">
          <mxGeometry width="50" height="50" relative="1" as="geometry">
            <mxPoint x="28" y="12" as="sourcePoint" />
            <mxPoint x="32" y="8" as="targetPoint" />
          </mxGeometry>
        </mxCell>
        <mxCell id="VccjVxZ1QOEAnE4NQ08W-279" value="" style="endArrow=none;html=1;rounded=0;" parent="VccjVxZ1QOEAnE4NQ08W-270" edge="1">
          <mxGeometry width="50" height="50" relative="1" as="geometry">
            <mxPoint x="28" y="32" as="sourcePoint" />
            <mxPoint x="28" y="12" as="targetPoint" />
          </mxGeometry>
        </mxCell>
        <mxCell id="VccjVxZ1QOEAnE4NQ08W-280" value="" style="endArrow=none;html=1;rounded=0;" parent="VccjVxZ1QOEAnE4NQ08W-270" edge="1">
          <mxGeometry width="50" height="50" relative="1" as="geometry">
            <mxPoint x="28" y="32" as="sourcePoint" />
            <mxPoint x="32" y="36" as="targetPoint" />
          </mxGeometry>
        </mxCell>
        <mxCell id="VccjVxZ1QOEAnE4NQ08W-281" value="" style="endArrow=none;html=1;rounded=0;" parent="VccjVxZ1QOEAnE4NQ08W-270" edge="1">
          <mxGeometry width="50" height="50" relative="1" as="geometry">
            <mxPoint x="32" y="36" as="sourcePoint" />
            <mxPoint x="36" y="32" as="targetPoint" />
          </mxGeometry>
        </mxCell>
        <mxCell id="VccjVxZ1QOEAnE4NQ08W-282" value="" style="endArrow=none;html=1;rounded=0;" parent="VccjVxZ1QOEAnE4NQ08W-270" edge="1">
          <mxGeometry width="50" height="50" relative="1" as="geometry">
            <mxPoint x="36" y="32" as="sourcePoint" />
            <mxPoint x="36" y="12" as="targetPoint" />
          </mxGeometry>
        </mxCell>
        <mxCell id="VccjVxZ1QOEAnE4NQ08W-283" value="" style="endArrow=none;html=1;rounded=0;" parent="VccjVxZ1QOEAnE4NQ08W-270" edge="1">
          <mxGeometry width="50" height="50" relative="1" as="geometry">
            <mxPoint x="4" y="8" as="sourcePoint" />
            <mxPoint x="8" y="12" as="targetPoint" />
          </mxGeometry>
        </mxCell>
        <mxCell id="VccjVxZ1QOEAnE4NQ08W-284" value="" style="endArrow=none;html=1;rounded=0;" parent="VccjVxZ1QOEAnE4NQ08W-270" edge="1">
          <mxGeometry width="50" height="50" relative="1" as="geometry">
            <mxPoint y="12" as="sourcePoint" />
            <mxPoint x="4" y="8" as="targetPoint" />
          </mxGeometry>
        </mxCell>
        <mxCell id="VccjVxZ1QOEAnE4NQ08W-285" value="" style="endArrow=none;html=1;rounded=0;" parent="VccjVxZ1QOEAnE4NQ08W-270" edge="1">
          <mxGeometry width="50" height="50" relative="1" as="geometry">
            <mxPoint y="32" as="sourcePoint" />
            <mxPoint y="12" as="targetPoint" />
          </mxGeometry>
        </mxCell>
        <mxCell id="VccjVxZ1QOEAnE4NQ08W-286" value="" style="endArrow=none;html=1;rounded=0;" parent="VccjVxZ1QOEAnE4NQ08W-270" edge="1">
          <mxGeometry width="50" height="50" relative="1" as="geometry">
            <mxPoint y="32" as="sourcePoint" />
            <mxPoint x="4" y="36" as="targetPoint" />
          </mxGeometry>
        </mxCell>
        <mxCell id="VccjVxZ1QOEAnE4NQ08W-287" value="" style="endArrow=none;html=1;rounded=0;" parent="VccjVxZ1QOEAnE4NQ08W-270" edge="1">
          <mxGeometry width="50" height="50" relative="1" as="geometry">
            <mxPoint x="4" y="36" as="sourcePoint" />
            <mxPoint x="8" y="32" as="targetPoint" />
          </mxGeometry>
        </mxCell>
        <mxCell id="VccjVxZ1QOEAnE4NQ08W-288" value="" style="endArrow=none;html=1;rounded=0;" parent="VccjVxZ1QOEAnE4NQ08W-270" edge="1">
          <mxGeometry width="50" height="50" relative="1" as="geometry">
            <mxPoint x="8" y="32" as="sourcePoint" />
            <mxPoint x="8" y="12" as="targetPoint" />
          </mxGeometry>
        </mxCell>
        <mxCell id="VccjVxZ1QOEAnE4NQ08W-289" value="" style="endArrow=none;html=1;rounded=0;" parent="VccjVxZ1QOEAnE4NQ08W-270" edge="1">
          <mxGeometry width="50" height="50" relative="1" as="geometry">
            <mxPoint x="8" y="36" as="sourcePoint" />
            <mxPoint x="28" y="36" as="targetPoint" />
          </mxGeometry>
        </mxCell>
        <mxCell id="VccjVxZ1QOEAnE4NQ08W-290" value="" style="endArrow=none;html=1;rounded=0;" parent="VccjVxZ1QOEAnE4NQ08W-270" edge="1">
          <mxGeometry width="50" height="50" relative="1" as="geometry">
            <mxPoint x="8" y="44" as="sourcePoint" />
            <mxPoint x="28" y="44" as="targetPoint" />
          </mxGeometry>
        </mxCell>
        <mxCell id="VccjVxZ1QOEAnE4NQ08W-291" value="" style="endArrow=none;html=1;rounded=0;" parent="VccjVxZ1QOEAnE4NQ08W-270" edge="1">
          <mxGeometry width="50" height="50" relative="1" as="geometry">
            <mxPoint x="32" y="40" as="sourcePoint" />
            <mxPoint x="28" y="44" as="targetPoint" />
          </mxGeometry>
        </mxCell>
        <mxCell id="VccjVxZ1QOEAnE4NQ08W-292" value="" style="endArrow=none;html=1;rounded=0;" parent="VccjVxZ1QOEAnE4NQ08W-270" edge="1">
          <mxGeometry width="50" height="50" relative="1" as="geometry">
            <mxPoint x="32" y="40" as="sourcePoint" />
            <mxPoint x="28" y="36" as="targetPoint" />
          </mxGeometry>
        </mxCell>
        <mxCell id="VccjVxZ1QOEAnE4NQ08W-293" value="" style="endArrow=none;html=1;rounded=0;" parent="VccjVxZ1QOEAnE4NQ08W-270" edge="1">
          <mxGeometry width="50" height="50" relative="1" as="geometry">
            <mxPoint x="8" y="44" as="sourcePoint" />
            <mxPoint x="4" y="40" as="targetPoint" />
          </mxGeometry>
        </mxCell>
        <mxCell id="VccjVxZ1QOEAnE4NQ08W-294" value="" style="endArrow=none;html=1;rounded=0;" parent="VccjVxZ1QOEAnE4NQ08W-270" edge="1">
          <mxGeometry width="50" height="50" relative="1" as="geometry">
            <mxPoint x="8" y="36" as="sourcePoint" />
            <mxPoint x="4" y="40" as="targetPoint" />
          </mxGeometry>
        </mxCell>
        <mxCell id="VccjVxZ1QOEAnE4NQ08W-295" value="" style="endArrow=none;html=1;rounded=0;" parent="VccjVxZ1QOEAnE4NQ08W-270" edge="1">
          <mxGeometry width="50" height="50" relative="1" as="geometry">
            <mxPoint x="32" y="44" as="sourcePoint" />
            <mxPoint x="36" y="48" as="targetPoint" />
          </mxGeometry>
        </mxCell>
        <mxCell id="VccjVxZ1QOEAnE4NQ08W-296" value="" style="endArrow=none;html=1;rounded=0;" parent="VccjVxZ1QOEAnE4NQ08W-270" edge="1">
          <mxGeometry width="50" height="50" relative="1" as="geometry">
            <mxPoint x="28" y="48" as="sourcePoint" />
            <mxPoint x="32" y="44" as="targetPoint" />
          </mxGeometry>
        </mxCell>
        <mxCell id="VccjVxZ1QOEAnE4NQ08W-297" value="" style="endArrow=none;html=1;rounded=0;" parent="VccjVxZ1QOEAnE4NQ08W-270" edge="1">
          <mxGeometry width="50" height="50" relative="1" as="geometry">
            <mxPoint x="28" y="68" as="sourcePoint" />
            <mxPoint x="28" y="48" as="targetPoint" />
          </mxGeometry>
        </mxCell>
        <mxCell id="VccjVxZ1QOEAnE4NQ08W-298" value="" style="endArrow=none;html=1;rounded=0;" parent="VccjVxZ1QOEAnE4NQ08W-270" edge="1">
          <mxGeometry width="50" height="50" relative="1" as="geometry">
            <mxPoint x="28" y="68" as="sourcePoint" />
            <mxPoint x="32" y="72" as="targetPoint" />
          </mxGeometry>
        </mxCell>
        <mxCell id="VccjVxZ1QOEAnE4NQ08W-299" value="" style="endArrow=none;html=1;rounded=0;" parent="VccjVxZ1QOEAnE4NQ08W-270" edge="1">
          <mxGeometry width="50" height="50" relative="1" as="geometry">
            <mxPoint x="32" y="72" as="sourcePoint" />
            <mxPoint x="36" y="68" as="targetPoint" />
          </mxGeometry>
        </mxCell>
        <mxCell id="VccjVxZ1QOEAnE4NQ08W-300" value="" style="endArrow=none;html=1;rounded=0;" parent="VccjVxZ1QOEAnE4NQ08W-270" edge="1">
          <mxGeometry width="50" height="50" relative="1" as="geometry">
            <mxPoint x="36" y="68" as="sourcePoint" />
            <mxPoint x="36" y="48" as="targetPoint" />
          </mxGeometry>
        </mxCell>
        <mxCell id="VccjVxZ1QOEAnE4NQ08W-301" value="" style="endArrow=none;html=1;rounded=0;" parent="VccjVxZ1QOEAnE4NQ08W-270" edge="1">
          <mxGeometry width="50" height="50" relative="1" as="geometry">
            <mxPoint x="4" y="44" as="sourcePoint" />
            <mxPoint x="8" y="48" as="targetPoint" />
          </mxGeometry>
        </mxCell>
        <mxCell id="VccjVxZ1QOEAnE4NQ08W-302" value="" style="endArrow=none;html=1;rounded=0;" parent="VccjVxZ1QOEAnE4NQ08W-270" edge="1">
          <mxGeometry width="50" height="50" relative="1" as="geometry">
            <mxPoint y="48" as="sourcePoint" />
            <mxPoint x="4" y="44" as="targetPoint" />
          </mxGeometry>
        </mxCell>
        <mxCell id="VccjVxZ1QOEAnE4NQ08W-303" value="" style="endArrow=none;html=1;rounded=0;" parent="VccjVxZ1QOEAnE4NQ08W-270" edge="1">
          <mxGeometry width="50" height="50" relative="1" as="geometry">
            <mxPoint y="68" as="sourcePoint" />
            <mxPoint y="48" as="targetPoint" />
          </mxGeometry>
        </mxCell>
        <mxCell id="VccjVxZ1QOEAnE4NQ08W-304" value="" style="endArrow=none;html=1;rounded=0;" parent="VccjVxZ1QOEAnE4NQ08W-270" edge="1">
          <mxGeometry width="50" height="50" relative="1" as="geometry">
            <mxPoint y="68" as="sourcePoint" />
            <mxPoint x="4" y="72" as="targetPoint" />
          </mxGeometry>
        </mxCell>
        <mxCell id="VccjVxZ1QOEAnE4NQ08W-305" value="" style="endArrow=none;html=1;rounded=0;" parent="VccjVxZ1QOEAnE4NQ08W-270" edge="1">
          <mxGeometry width="50" height="50" relative="1" as="geometry">
            <mxPoint x="4" y="72" as="sourcePoint" />
            <mxPoint x="8" y="68" as="targetPoint" />
          </mxGeometry>
        </mxCell>
        <mxCell id="VccjVxZ1QOEAnE4NQ08W-306" value="" style="endArrow=none;html=1;rounded=0;" parent="VccjVxZ1QOEAnE4NQ08W-270" edge="1">
          <mxGeometry width="50" height="50" relative="1" as="geometry">
            <mxPoint x="8" y="68" as="sourcePoint" />
            <mxPoint x="8" y="48" as="targetPoint" />
          </mxGeometry>
        </mxCell>
        <mxCell id="VccjVxZ1QOEAnE4NQ08W-307" value="" style="endArrow=none;html=1;rounded=0;" parent="VccjVxZ1QOEAnE4NQ08W-270" edge="1">
          <mxGeometry width="50" height="50" relative="1" as="geometry">
            <mxPoint x="8" y="72" as="sourcePoint" />
            <mxPoint x="28" y="72" as="targetPoint" />
          </mxGeometry>
        </mxCell>
        <mxCell id="VccjVxZ1QOEAnE4NQ08W-308" value="" style="endArrow=none;html=1;rounded=0;" parent="VccjVxZ1QOEAnE4NQ08W-270" edge="1">
          <mxGeometry width="50" height="50" relative="1" as="geometry">
            <mxPoint x="8" y="80" as="sourcePoint" />
            <mxPoint x="28" y="80" as="targetPoint" />
          </mxGeometry>
        </mxCell>
        <mxCell id="VccjVxZ1QOEAnE4NQ08W-309" value="" style="endArrow=none;html=1;rounded=0;" parent="VccjVxZ1QOEAnE4NQ08W-270" edge="1">
          <mxGeometry width="50" height="50" relative="1" as="geometry">
            <mxPoint x="32" y="76" as="sourcePoint" />
            <mxPoint x="28" y="80" as="targetPoint" />
          </mxGeometry>
        </mxCell>
        <mxCell id="VccjVxZ1QOEAnE4NQ08W-310" value="" style="endArrow=none;html=1;rounded=0;" parent="VccjVxZ1QOEAnE4NQ08W-270" edge="1">
          <mxGeometry width="50" height="50" relative="1" as="geometry">
            <mxPoint x="32" y="76" as="sourcePoint" />
            <mxPoint x="28" y="72" as="targetPoint" />
          </mxGeometry>
        </mxCell>
        <mxCell id="VccjVxZ1QOEAnE4NQ08W-311" value="" style="endArrow=none;html=1;rounded=0;" parent="VccjVxZ1QOEAnE4NQ08W-270" edge="1">
          <mxGeometry width="50" height="50" relative="1" as="geometry">
            <mxPoint x="8" y="80" as="sourcePoint" />
            <mxPoint x="4" y="76" as="targetPoint" />
          </mxGeometry>
        </mxCell>
        <mxCell id="VccjVxZ1QOEAnE4NQ08W-312" value="" style="endArrow=none;html=1;rounded=0;" parent="VccjVxZ1QOEAnE4NQ08W-270" edge="1">
          <mxGeometry width="50" height="50" relative="1" as="geometry">
            <mxPoint x="8" y="72" as="sourcePoint" />
            <mxPoint x="4" y="76" as="targetPoint" />
          </mxGeometry>
        </mxCell>
        <mxCell id="VccjVxZ1QOEAnE4NQ08W-313" value="" style="group" parent="1" vertex="1" connectable="0">
          <mxGeometry x="774" y="536" width="36" height="80" as="geometry" />
        </mxCell>
        <mxCell id="VccjVxZ1QOEAnE4NQ08W-314" value="" style="endArrow=none;html=1;rounded=0;" parent="VccjVxZ1QOEAnE4NQ08W-313" edge="1">
          <mxGeometry width="50" height="50" relative="1" as="geometry">
            <mxPoint x="8" as="sourcePoint" />
            <mxPoint x="28" as="targetPoint" />
          </mxGeometry>
        </mxCell>
        <mxCell id="VccjVxZ1QOEAnE4NQ08W-315" value="" style="endArrow=none;html=1;rounded=0;" parent="VccjVxZ1QOEAnE4NQ08W-313" edge="1">
          <mxGeometry width="50" height="50" relative="1" as="geometry">
            <mxPoint x="8" y="8" as="sourcePoint" />
            <mxPoint x="28" y="8" as="targetPoint" />
          </mxGeometry>
        </mxCell>
        <mxCell id="VccjVxZ1QOEAnE4NQ08W-316" value="" style="endArrow=none;html=1;rounded=0;" parent="VccjVxZ1QOEAnE4NQ08W-313" edge="1">
          <mxGeometry width="50" height="50" relative="1" as="geometry">
            <mxPoint x="32" y="4" as="sourcePoint" />
            <mxPoint x="28" y="8" as="targetPoint" />
          </mxGeometry>
        </mxCell>
        <mxCell id="VccjVxZ1QOEAnE4NQ08W-317" value="" style="endArrow=none;html=1;rounded=0;" parent="VccjVxZ1QOEAnE4NQ08W-313" edge="1">
          <mxGeometry width="50" height="50" relative="1" as="geometry">
            <mxPoint x="32" y="4" as="sourcePoint" />
            <mxPoint x="28" as="targetPoint" />
          </mxGeometry>
        </mxCell>
        <mxCell id="VccjVxZ1QOEAnE4NQ08W-318" value="" style="endArrow=none;html=1;rounded=0;" parent="VccjVxZ1QOEAnE4NQ08W-313" edge="1">
          <mxGeometry width="50" height="50" relative="1" as="geometry">
            <mxPoint x="8" y="8" as="sourcePoint" />
            <mxPoint x="4" y="4" as="targetPoint" />
          </mxGeometry>
        </mxCell>
        <mxCell id="VccjVxZ1QOEAnE4NQ08W-319" value="" style="endArrow=none;html=1;rounded=0;" parent="VccjVxZ1QOEAnE4NQ08W-313" edge="1">
          <mxGeometry width="50" height="50" relative="1" as="geometry">
            <mxPoint x="8" as="sourcePoint" />
            <mxPoint x="4" y="4" as="targetPoint" />
          </mxGeometry>
        </mxCell>
        <mxCell id="VccjVxZ1QOEAnE4NQ08W-320" value="" style="endArrow=none;html=1;rounded=0;" parent="VccjVxZ1QOEAnE4NQ08W-313" edge="1">
          <mxGeometry width="50" height="50" relative="1" as="geometry">
            <mxPoint x="32" y="8" as="sourcePoint" />
            <mxPoint x="36" y="12" as="targetPoint" />
          </mxGeometry>
        </mxCell>
        <mxCell id="VccjVxZ1QOEAnE4NQ08W-321" value="" style="endArrow=none;html=1;rounded=0;" parent="VccjVxZ1QOEAnE4NQ08W-313" edge="1">
          <mxGeometry width="50" height="50" relative="1" as="geometry">
            <mxPoint x="28" y="12" as="sourcePoint" />
            <mxPoint x="32" y="8" as="targetPoint" />
          </mxGeometry>
        </mxCell>
        <mxCell id="VccjVxZ1QOEAnE4NQ08W-322" value="" style="endArrow=none;html=1;rounded=0;" parent="VccjVxZ1QOEAnE4NQ08W-313" edge="1">
          <mxGeometry width="50" height="50" relative="1" as="geometry">
            <mxPoint x="28" y="32" as="sourcePoint" />
            <mxPoint x="28" y="12" as="targetPoint" />
          </mxGeometry>
        </mxCell>
        <mxCell id="VccjVxZ1QOEAnE4NQ08W-323" value="" style="endArrow=none;html=1;rounded=0;" parent="VccjVxZ1QOEAnE4NQ08W-313" edge="1">
          <mxGeometry width="50" height="50" relative="1" as="geometry">
            <mxPoint x="28" y="32" as="sourcePoint" />
            <mxPoint x="32" y="36" as="targetPoint" />
          </mxGeometry>
        </mxCell>
        <mxCell id="VccjVxZ1QOEAnE4NQ08W-324" value="" style="endArrow=none;html=1;rounded=0;" parent="VccjVxZ1QOEAnE4NQ08W-313" edge="1">
          <mxGeometry width="50" height="50" relative="1" as="geometry">
            <mxPoint x="32" y="36" as="sourcePoint" />
            <mxPoint x="36" y="32" as="targetPoint" />
          </mxGeometry>
        </mxCell>
        <mxCell id="VccjVxZ1QOEAnE4NQ08W-325" value="" style="endArrow=none;html=1;rounded=0;" parent="VccjVxZ1QOEAnE4NQ08W-313" edge="1">
          <mxGeometry width="50" height="50" relative="1" as="geometry">
            <mxPoint x="36" y="32" as="sourcePoint" />
            <mxPoint x="36" y="12" as="targetPoint" />
          </mxGeometry>
        </mxCell>
        <mxCell id="VccjVxZ1QOEAnE4NQ08W-326" value="" style="endArrow=none;html=1;rounded=0;" parent="VccjVxZ1QOEAnE4NQ08W-313" edge="1">
          <mxGeometry width="50" height="50" relative="1" as="geometry">
            <mxPoint x="4" y="8" as="sourcePoint" />
            <mxPoint x="8" y="12" as="targetPoint" />
          </mxGeometry>
        </mxCell>
        <mxCell id="VccjVxZ1QOEAnE4NQ08W-327" value="" style="endArrow=none;html=1;rounded=0;" parent="VccjVxZ1QOEAnE4NQ08W-313" edge="1">
          <mxGeometry width="50" height="50" relative="1" as="geometry">
            <mxPoint y="12" as="sourcePoint" />
            <mxPoint x="4" y="8" as="targetPoint" />
          </mxGeometry>
        </mxCell>
        <mxCell id="VccjVxZ1QOEAnE4NQ08W-328" value="" style="endArrow=none;html=1;rounded=0;" parent="VccjVxZ1QOEAnE4NQ08W-313" edge="1">
          <mxGeometry width="50" height="50" relative="1" as="geometry">
            <mxPoint y="32" as="sourcePoint" />
            <mxPoint y="12" as="targetPoint" />
          </mxGeometry>
        </mxCell>
        <mxCell id="VccjVxZ1QOEAnE4NQ08W-329" value="" style="endArrow=none;html=1;rounded=0;" parent="VccjVxZ1QOEAnE4NQ08W-313" edge="1">
          <mxGeometry width="50" height="50" relative="1" as="geometry">
            <mxPoint y="32" as="sourcePoint" />
            <mxPoint x="4" y="36" as="targetPoint" />
          </mxGeometry>
        </mxCell>
        <mxCell id="VccjVxZ1QOEAnE4NQ08W-330" value="" style="endArrow=none;html=1;rounded=0;" parent="VccjVxZ1QOEAnE4NQ08W-313" edge="1">
          <mxGeometry width="50" height="50" relative="1" as="geometry">
            <mxPoint x="4" y="36" as="sourcePoint" />
            <mxPoint x="8" y="32" as="targetPoint" />
          </mxGeometry>
        </mxCell>
        <mxCell id="VccjVxZ1QOEAnE4NQ08W-331" value="" style="endArrow=none;html=1;rounded=0;" parent="VccjVxZ1QOEAnE4NQ08W-313" edge="1">
          <mxGeometry width="50" height="50" relative="1" as="geometry">
            <mxPoint x="8" y="32" as="sourcePoint" />
            <mxPoint x="8" y="12" as="targetPoint" />
          </mxGeometry>
        </mxCell>
        <mxCell id="VccjVxZ1QOEAnE4NQ08W-332" value="" style="endArrow=none;html=1;rounded=0;" parent="VccjVxZ1QOEAnE4NQ08W-313" edge="1">
          <mxGeometry width="50" height="50" relative="1" as="geometry">
            <mxPoint x="8" y="36" as="sourcePoint" />
            <mxPoint x="28" y="36" as="targetPoint" />
          </mxGeometry>
        </mxCell>
        <mxCell id="VccjVxZ1QOEAnE4NQ08W-333" value="" style="endArrow=none;html=1;rounded=0;" parent="VccjVxZ1QOEAnE4NQ08W-313" edge="1">
          <mxGeometry width="50" height="50" relative="1" as="geometry">
            <mxPoint x="8" y="44" as="sourcePoint" />
            <mxPoint x="28" y="44" as="targetPoint" />
          </mxGeometry>
        </mxCell>
        <mxCell id="VccjVxZ1QOEAnE4NQ08W-334" value="" style="endArrow=none;html=1;rounded=0;" parent="VccjVxZ1QOEAnE4NQ08W-313" edge="1">
          <mxGeometry width="50" height="50" relative="1" as="geometry">
            <mxPoint x="32" y="40" as="sourcePoint" />
            <mxPoint x="28" y="44" as="targetPoint" />
          </mxGeometry>
        </mxCell>
        <mxCell id="VccjVxZ1QOEAnE4NQ08W-335" value="" style="endArrow=none;html=1;rounded=0;" parent="VccjVxZ1QOEAnE4NQ08W-313" edge="1">
          <mxGeometry width="50" height="50" relative="1" as="geometry">
            <mxPoint x="32" y="40" as="sourcePoint" />
            <mxPoint x="28" y="36" as="targetPoint" />
          </mxGeometry>
        </mxCell>
        <mxCell id="VccjVxZ1QOEAnE4NQ08W-336" value="" style="endArrow=none;html=1;rounded=0;" parent="VccjVxZ1QOEAnE4NQ08W-313" edge="1">
          <mxGeometry width="50" height="50" relative="1" as="geometry">
            <mxPoint x="8" y="44" as="sourcePoint" />
            <mxPoint x="4" y="40" as="targetPoint" />
          </mxGeometry>
        </mxCell>
        <mxCell id="VccjVxZ1QOEAnE4NQ08W-337" value="" style="endArrow=none;html=1;rounded=0;" parent="VccjVxZ1QOEAnE4NQ08W-313" edge="1">
          <mxGeometry width="50" height="50" relative="1" as="geometry">
            <mxPoint x="8" y="36" as="sourcePoint" />
            <mxPoint x="4" y="40" as="targetPoint" />
          </mxGeometry>
        </mxCell>
        <mxCell id="VccjVxZ1QOEAnE4NQ08W-338" value="" style="endArrow=none;html=1;rounded=0;" parent="VccjVxZ1QOEAnE4NQ08W-313" edge="1">
          <mxGeometry width="50" height="50" relative="1" as="geometry">
            <mxPoint x="32" y="44" as="sourcePoint" />
            <mxPoint x="36" y="48" as="targetPoint" />
          </mxGeometry>
        </mxCell>
        <mxCell id="VccjVxZ1QOEAnE4NQ08W-339" value="" style="endArrow=none;html=1;rounded=0;" parent="VccjVxZ1QOEAnE4NQ08W-313" edge="1">
          <mxGeometry width="50" height="50" relative="1" as="geometry">
            <mxPoint x="28" y="48" as="sourcePoint" />
            <mxPoint x="32" y="44" as="targetPoint" />
          </mxGeometry>
        </mxCell>
        <mxCell id="VccjVxZ1QOEAnE4NQ08W-340" value="" style="endArrow=none;html=1;rounded=0;" parent="VccjVxZ1QOEAnE4NQ08W-313" edge="1">
          <mxGeometry width="50" height="50" relative="1" as="geometry">
            <mxPoint x="28" y="68" as="sourcePoint" />
            <mxPoint x="28" y="48" as="targetPoint" />
          </mxGeometry>
        </mxCell>
        <mxCell id="VccjVxZ1QOEAnE4NQ08W-341" value="" style="endArrow=none;html=1;rounded=0;" parent="VccjVxZ1QOEAnE4NQ08W-313" edge="1">
          <mxGeometry width="50" height="50" relative="1" as="geometry">
            <mxPoint x="28" y="68" as="sourcePoint" />
            <mxPoint x="32" y="72" as="targetPoint" />
          </mxGeometry>
        </mxCell>
        <mxCell id="VccjVxZ1QOEAnE4NQ08W-342" value="" style="endArrow=none;html=1;rounded=0;" parent="VccjVxZ1QOEAnE4NQ08W-313" edge="1">
          <mxGeometry width="50" height="50" relative="1" as="geometry">
            <mxPoint x="32" y="72" as="sourcePoint" />
            <mxPoint x="36" y="68" as="targetPoint" />
          </mxGeometry>
        </mxCell>
        <mxCell id="VccjVxZ1QOEAnE4NQ08W-343" value="" style="endArrow=none;html=1;rounded=0;" parent="VccjVxZ1QOEAnE4NQ08W-313" edge="1">
          <mxGeometry width="50" height="50" relative="1" as="geometry">
            <mxPoint x="36" y="68" as="sourcePoint" />
            <mxPoint x="36" y="48" as="targetPoint" />
          </mxGeometry>
        </mxCell>
        <mxCell id="VccjVxZ1QOEAnE4NQ08W-344" value="" style="endArrow=none;html=1;rounded=0;" parent="VccjVxZ1QOEAnE4NQ08W-313" edge="1">
          <mxGeometry width="50" height="50" relative="1" as="geometry">
            <mxPoint x="4" y="44" as="sourcePoint" />
            <mxPoint x="8" y="48" as="targetPoint" />
          </mxGeometry>
        </mxCell>
        <mxCell id="VccjVxZ1QOEAnE4NQ08W-345" value="" style="endArrow=none;html=1;rounded=0;" parent="VccjVxZ1QOEAnE4NQ08W-313" edge="1">
          <mxGeometry width="50" height="50" relative="1" as="geometry">
            <mxPoint y="48" as="sourcePoint" />
            <mxPoint x="4" y="44" as="targetPoint" />
          </mxGeometry>
        </mxCell>
        <mxCell id="VccjVxZ1QOEAnE4NQ08W-346" value="" style="endArrow=none;html=1;rounded=0;" parent="VccjVxZ1QOEAnE4NQ08W-313" edge="1">
          <mxGeometry width="50" height="50" relative="1" as="geometry">
            <mxPoint y="68" as="sourcePoint" />
            <mxPoint y="48" as="targetPoint" />
          </mxGeometry>
        </mxCell>
        <mxCell id="VccjVxZ1QOEAnE4NQ08W-347" value="" style="endArrow=none;html=1;rounded=0;" parent="VccjVxZ1QOEAnE4NQ08W-313" edge="1">
          <mxGeometry width="50" height="50" relative="1" as="geometry">
            <mxPoint y="68" as="sourcePoint" />
            <mxPoint x="4" y="72" as="targetPoint" />
          </mxGeometry>
        </mxCell>
        <mxCell id="VccjVxZ1QOEAnE4NQ08W-348" value="" style="endArrow=none;html=1;rounded=0;" parent="VccjVxZ1QOEAnE4NQ08W-313" edge="1">
          <mxGeometry width="50" height="50" relative="1" as="geometry">
            <mxPoint x="4" y="72" as="sourcePoint" />
            <mxPoint x="8" y="68" as="targetPoint" />
          </mxGeometry>
        </mxCell>
        <mxCell id="VccjVxZ1QOEAnE4NQ08W-349" value="" style="endArrow=none;html=1;rounded=0;" parent="VccjVxZ1QOEAnE4NQ08W-313" edge="1">
          <mxGeometry width="50" height="50" relative="1" as="geometry">
            <mxPoint x="8" y="68" as="sourcePoint" />
            <mxPoint x="8" y="48" as="targetPoint" />
          </mxGeometry>
        </mxCell>
        <mxCell id="VccjVxZ1QOEAnE4NQ08W-350" value="" style="endArrow=none;html=1;rounded=0;" parent="VccjVxZ1QOEAnE4NQ08W-313" edge="1">
          <mxGeometry width="50" height="50" relative="1" as="geometry">
            <mxPoint x="8" y="72" as="sourcePoint" />
            <mxPoint x="28" y="72" as="targetPoint" />
          </mxGeometry>
        </mxCell>
        <mxCell id="VccjVxZ1QOEAnE4NQ08W-351" value="" style="endArrow=none;html=1;rounded=0;" parent="VccjVxZ1QOEAnE4NQ08W-313" edge="1">
          <mxGeometry width="50" height="50" relative="1" as="geometry">
            <mxPoint x="8" y="80" as="sourcePoint" />
            <mxPoint x="28" y="80" as="targetPoint" />
          </mxGeometry>
        </mxCell>
        <mxCell id="VccjVxZ1QOEAnE4NQ08W-352" value="" style="endArrow=none;html=1;rounded=0;" parent="VccjVxZ1QOEAnE4NQ08W-313" edge="1">
          <mxGeometry width="50" height="50" relative="1" as="geometry">
            <mxPoint x="32" y="76" as="sourcePoint" />
            <mxPoint x="28" y="80" as="targetPoint" />
          </mxGeometry>
        </mxCell>
        <mxCell id="VccjVxZ1QOEAnE4NQ08W-353" value="" style="endArrow=none;html=1;rounded=0;" parent="VccjVxZ1QOEAnE4NQ08W-313" edge="1">
          <mxGeometry width="50" height="50" relative="1" as="geometry">
            <mxPoint x="32" y="76" as="sourcePoint" />
            <mxPoint x="28" y="72" as="targetPoint" />
          </mxGeometry>
        </mxCell>
        <mxCell id="VccjVxZ1QOEAnE4NQ08W-354" value="" style="endArrow=none;html=1;rounded=0;" parent="VccjVxZ1QOEAnE4NQ08W-313" edge="1">
          <mxGeometry width="50" height="50" relative="1" as="geometry">
            <mxPoint x="8" y="80" as="sourcePoint" />
            <mxPoint x="4" y="76" as="targetPoint" />
          </mxGeometry>
        </mxCell>
        <mxCell id="VccjVxZ1QOEAnE4NQ08W-355" value="" style="endArrow=none;html=1;rounded=0;" parent="VccjVxZ1QOEAnE4NQ08W-313" edge="1">
          <mxGeometry width="50" height="50" relative="1" as="geometry">
            <mxPoint x="8" y="72" as="sourcePoint" />
            <mxPoint x="4" y="76" as="targetPoint" />
          </mxGeometry>
        </mxCell>
        <mxCell id="VccjVxZ1QOEAnE4NQ08W-356" value="" style="group" parent="1" vertex="1" connectable="0">
          <mxGeometry x="624" y="536" width="36" height="80" as="geometry" />
        </mxCell>
        <mxCell id="VccjVxZ1QOEAnE4NQ08W-357" value="" style="endArrow=none;html=1;rounded=0;" parent="VccjVxZ1QOEAnE4NQ08W-356" edge="1">
          <mxGeometry width="50" height="50" relative="1" as="geometry">
            <mxPoint x="8" as="sourcePoint" />
            <mxPoint x="28" as="targetPoint" />
          </mxGeometry>
        </mxCell>
        <mxCell id="VccjVxZ1QOEAnE4NQ08W-358" value="" style="endArrow=none;html=1;rounded=0;" parent="VccjVxZ1QOEAnE4NQ08W-356" edge="1">
          <mxGeometry width="50" height="50" relative="1" as="geometry">
            <mxPoint x="8" y="8" as="sourcePoint" />
            <mxPoint x="28" y="8" as="targetPoint" />
          </mxGeometry>
        </mxCell>
        <mxCell id="VccjVxZ1QOEAnE4NQ08W-359" value="" style="endArrow=none;html=1;rounded=0;" parent="VccjVxZ1QOEAnE4NQ08W-356" edge="1">
          <mxGeometry width="50" height="50" relative="1" as="geometry">
            <mxPoint x="32" y="4" as="sourcePoint" />
            <mxPoint x="28" y="8" as="targetPoint" />
          </mxGeometry>
        </mxCell>
        <mxCell id="VccjVxZ1QOEAnE4NQ08W-360" value="" style="endArrow=none;html=1;rounded=0;" parent="VccjVxZ1QOEAnE4NQ08W-356" edge="1">
          <mxGeometry width="50" height="50" relative="1" as="geometry">
            <mxPoint x="32" y="4" as="sourcePoint" />
            <mxPoint x="28" as="targetPoint" />
          </mxGeometry>
        </mxCell>
        <mxCell id="VccjVxZ1QOEAnE4NQ08W-361" value="" style="endArrow=none;html=1;rounded=0;" parent="VccjVxZ1QOEAnE4NQ08W-356" edge="1">
          <mxGeometry width="50" height="50" relative="1" as="geometry">
            <mxPoint x="8" y="8" as="sourcePoint" />
            <mxPoint x="4" y="4" as="targetPoint" />
          </mxGeometry>
        </mxCell>
        <mxCell id="VccjVxZ1QOEAnE4NQ08W-362" value="" style="endArrow=none;html=1;rounded=0;" parent="VccjVxZ1QOEAnE4NQ08W-356" edge="1">
          <mxGeometry width="50" height="50" relative="1" as="geometry">
            <mxPoint x="8" as="sourcePoint" />
            <mxPoint x="4" y="4" as="targetPoint" />
          </mxGeometry>
        </mxCell>
        <mxCell id="VccjVxZ1QOEAnE4NQ08W-363" value="" style="endArrow=none;html=1;rounded=0;" parent="VccjVxZ1QOEAnE4NQ08W-356" edge="1">
          <mxGeometry width="50" height="50" relative="1" as="geometry">
            <mxPoint x="32" y="8" as="sourcePoint" />
            <mxPoint x="36" y="12" as="targetPoint" />
          </mxGeometry>
        </mxCell>
        <mxCell id="VccjVxZ1QOEAnE4NQ08W-364" value="" style="endArrow=none;html=1;rounded=0;" parent="VccjVxZ1QOEAnE4NQ08W-356" edge="1">
          <mxGeometry width="50" height="50" relative="1" as="geometry">
            <mxPoint x="28" y="12" as="sourcePoint" />
            <mxPoint x="32" y="8" as="targetPoint" />
          </mxGeometry>
        </mxCell>
        <mxCell id="VccjVxZ1QOEAnE4NQ08W-365" value="" style="endArrow=none;html=1;rounded=0;" parent="VccjVxZ1QOEAnE4NQ08W-356" edge="1">
          <mxGeometry width="50" height="50" relative="1" as="geometry">
            <mxPoint x="28" y="32" as="sourcePoint" />
            <mxPoint x="28" y="12" as="targetPoint" />
          </mxGeometry>
        </mxCell>
        <mxCell id="VccjVxZ1QOEAnE4NQ08W-366" value="" style="endArrow=none;html=1;rounded=0;" parent="VccjVxZ1QOEAnE4NQ08W-356" edge="1">
          <mxGeometry width="50" height="50" relative="1" as="geometry">
            <mxPoint x="28" y="32" as="sourcePoint" />
            <mxPoint x="32" y="36" as="targetPoint" />
          </mxGeometry>
        </mxCell>
        <mxCell id="VccjVxZ1QOEAnE4NQ08W-367" value="" style="endArrow=none;html=1;rounded=0;" parent="VccjVxZ1QOEAnE4NQ08W-356" edge="1">
          <mxGeometry width="50" height="50" relative="1" as="geometry">
            <mxPoint x="32" y="36" as="sourcePoint" />
            <mxPoint x="36" y="32" as="targetPoint" />
          </mxGeometry>
        </mxCell>
        <mxCell id="VccjVxZ1QOEAnE4NQ08W-368" value="" style="endArrow=none;html=1;rounded=0;" parent="VccjVxZ1QOEAnE4NQ08W-356" edge="1">
          <mxGeometry width="50" height="50" relative="1" as="geometry">
            <mxPoint x="36" y="32" as="sourcePoint" />
            <mxPoint x="36" y="12" as="targetPoint" />
          </mxGeometry>
        </mxCell>
        <mxCell id="VccjVxZ1QOEAnE4NQ08W-369" value="" style="endArrow=none;html=1;rounded=0;" parent="VccjVxZ1QOEAnE4NQ08W-356" edge="1">
          <mxGeometry width="50" height="50" relative="1" as="geometry">
            <mxPoint x="4" y="8" as="sourcePoint" />
            <mxPoint x="8" y="12" as="targetPoint" />
          </mxGeometry>
        </mxCell>
        <mxCell id="VccjVxZ1QOEAnE4NQ08W-370" value="" style="endArrow=none;html=1;rounded=0;" parent="VccjVxZ1QOEAnE4NQ08W-356" edge="1">
          <mxGeometry width="50" height="50" relative="1" as="geometry">
            <mxPoint y="12" as="sourcePoint" />
            <mxPoint x="4" y="8" as="targetPoint" />
          </mxGeometry>
        </mxCell>
        <mxCell id="VccjVxZ1QOEAnE4NQ08W-371" value="" style="endArrow=none;html=1;rounded=0;" parent="VccjVxZ1QOEAnE4NQ08W-356" edge="1">
          <mxGeometry width="50" height="50" relative="1" as="geometry">
            <mxPoint y="32" as="sourcePoint" />
            <mxPoint y="12" as="targetPoint" />
          </mxGeometry>
        </mxCell>
        <mxCell id="VccjVxZ1QOEAnE4NQ08W-372" value="" style="endArrow=none;html=1;rounded=0;" parent="VccjVxZ1QOEAnE4NQ08W-356" edge="1">
          <mxGeometry width="50" height="50" relative="1" as="geometry">
            <mxPoint y="32" as="sourcePoint" />
            <mxPoint x="4" y="36" as="targetPoint" />
          </mxGeometry>
        </mxCell>
        <mxCell id="VccjVxZ1QOEAnE4NQ08W-373" value="" style="endArrow=none;html=1;rounded=0;" parent="VccjVxZ1QOEAnE4NQ08W-356" edge="1">
          <mxGeometry width="50" height="50" relative="1" as="geometry">
            <mxPoint x="4" y="36" as="sourcePoint" />
            <mxPoint x="8" y="32" as="targetPoint" />
          </mxGeometry>
        </mxCell>
        <mxCell id="VccjVxZ1QOEAnE4NQ08W-374" value="" style="endArrow=none;html=1;rounded=0;" parent="VccjVxZ1QOEAnE4NQ08W-356" edge="1">
          <mxGeometry width="50" height="50" relative="1" as="geometry">
            <mxPoint x="8" y="32" as="sourcePoint" />
            <mxPoint x="8" y="12" as="targetPoint" />
          </mxGeometry>
        </mxCell>
        <mxCell id="VccjVxZ1QOEAnE4NQ08W-375" value="" style="endArrow=none;html=1;rounded=0;" parent="VccjVxZ1QOEAnE4NQ08W-356" edge="1">
          <mxGeometry width="50" height="50" relative="1" as="geometry">
            <mxPoint x="8" y="36" as="sourcePoint" />
            <mxPoint x="28" y="36" as="targetPoint" />
          </mxGeometry>
        </mxCell>
        <mxCell id="VccjVxZ1QOEAnE4NQ08W-376" value="" style="endArrow=none;html=1;rounded=0;" parent="VccjVxZ1QOEAnE4NQ08W-356" edge="1">
          <mxGeometry width="50" height="50" relative="1" as="geometry">
            <mxPoint x="8" y="44" as="sourcePoint" />
            <mxPoint x="28" y="44" as="targetPoint" />
          </mxGeometry>
        </mxCell>
        <mxCell id="VccjVxZ1QOEAnE4NQ08W-377" value="" style="endArrow=none;html=1;rounded=0;" parent="VccjVxZ1QOEAnE4NQ08W-356" edge="1">
          <mxGeometry width="50" height="50" relative="1" as="geometry">
            <mxPoint x="32" y="40" as="sourcePoint" />
            <mxPoint x="28" y="44" as="targetPoint" />
          </mxGeometry>
        </mxCell>
        <mxCell id="VccjVxZ1QOEAnE4NQ08W-378" value="" style="endArrow=none;html=1;rounded=0;" parent="VccjVxZ1QOEAnE4NQ08W-356" edge="1">
          <mxGeometry width="50" height="50" relative="1" as="geometry">
            <mxPoint x="32" y="40" as="sourcePoint" />
            <mxPoint x="28" y="36" as="targetPoint" />
          </mxGeometry>
        </mxCell>
        <mxCell id="VccjVxZ1QOEAnE4NQ08W-379" value="" style="endArrow=none;html=1;rounded=0;" parent="VccjVxZ1QOEAnE4NQ08W-356" edge="1">
          <mxGeometry width="50" height="50" relative="1" as="geometry">
            <mxPoint x="8" y="44" as="sourcePoint" />
            <mxPoint x="4" y="40" as="targetPoint" />
          </mxGeometry>
        </mxCell>
        <mxCell id="VccjVxZ1QOEAnE4NQ08W-380" value="" style="endArrow=none;html=1;rounded=0;" parent="VccjVxZ1QOEAnE4NQ08W-356" edge="1">
          <mxGeometry width="50" height="50" relative="1" as="geometry">
            <mxPoint x="8" y="36" as="sourcePoint" />
            <mxPoint x="4" y="40" as="targetPoint" />
          </mxGeometry>
        </mxCell>
        <mxCell id="VccjVxZ1QOEAnE4NQ08W-381" value="" style="endArrow=none;html=1;rounded=0;" parent="VccjVxZ1QOEAnE4NQ08W-356" edge="1">
          <mxGeometry width="50" height="50" relative="1" as="geometry">
            <mxPoint x="32" y="44" as="sourcePoint" />
            <mxPoint x="36" y="48" as="targetPoint" />
          </mxGeometry>
        </mxCell>
        <mxCell id="VccjVxZ1QOEAnE4NQ08W-382" value="" style="endArrow=none;html=1;rounded=0;" parent="VccjVxZ1QOEAnE4NQ08W-356" edge="1">
          <mxGeometry width="50" height="50" relative="1" as="geometry">
            <mxPoint x="28" y="48" as="sourcePoint" />
            <mxPoint x="32" y="44" as="targetPoint" />
          </mxGeometry>
        </mxCell>
        <mxCell id="VccjVxZ1QOEAnE4NQ08W-383" value="" style="endArrow=none;html=1;rounded=0;" parent="VccjVxZ1QOEAnE4NQ08W-356" edge="1">
          <mxGeometry width="50" height="50" relative="1" as="geometry">
            <mxPoint x="28" y="68" as="sourcePoint" />
            <mxPoint x="28" y="48" as="targetPoint" />
          </mxGeometry>
        </mxCell>
        <mxCell id="VccjVxZ1QOEAnE4NQ08W-384" value="" style="endArrow=none;html=1;rounded=0;" parent="VccjVxZ1QOEAnE4NQ08W-356" edge="1">
          <mxGeometry width="50" height="50" relative="1" as="geometry">
            <mxPoint x="28" y="68" as="sourcePoint" />
            <mxPoint x="32" y="72" as="targetPoint" />
          </mxGeometry>
        </mxCell>
        <mxCell id="VccjVxZ1QOEAnE4NQ08W-385" value="" style="endArrow=none;html=1;rounded=0;" parent="VccjVxZ1QOEAnE4NQ08W-356" edge="1">
          <mxGeometry width="50" height="50" relative="1" as="geometry">
            <mxPoint x="32" y="72" as="sourcePoint" />
            <mxPoint x="36" y="68" as="targetPoint" />
          </mxGeometry>
        </mxCell>
        <mxCell id="VccjVxZ1QOEAnE4NQ08W-386" value="" style="endArrow=none;html=1;rounded=0;" parent="VccjVxZ1QOEAnE4NQ08W-356" edge="1">
          <mxGeometry width="50" height="50" relative="1" as="geometry">
            <mxPoint x="36" y="68" as="sourcePoint" />
            <mxPoint x="36" y="48" as="targetPoint" />
          </mxGeometry>
        </mxCell>
        <mxCell id="VccjVxZ1QOEAnE4NQ08W-387" value="" style="endArrow=none;html=1;rounded=0;" parent="VccjVxZ1QOEAnE4NQ08W-356" edge="1">
          <mxGeometry width="50" height="50" relative="1" as="geometry">
            <mxPoint x="4" y="44" as="sourcePoint" />
            <mxPoint x="8" y="48" as="targetPoint" />
          </mxGeometry>
        </mxCell>
        <mxCell id="VccjVxZ1QOEAnE4NQ08W-388" value="" style="endArrow=none;html=1;rounded=0;" parent="VccjVxZ1QOEAnE4NQ08W-356" edge="1">
          <mxGeometry width="50" height="50" relative="1" as="geometry">
            <mxPoint y="48" as="sourcePoint" />
            <mxPoint x="4" y="44" as="targetPoint" />
          </mxGeometry>
        </mxCell>
        <mxCell id="VccjVxZ1QOEAnE4NQ08W-389" value="" style="endArrow=none;html=1;rounded=0;" parent="VccjVxZ1QOEAnE4NQ08W-356" edge="1">
          <mxGeometry width="50" height="50" relative="1" as="geometry">
            <mxPoint y="68" as="sourcePoint" />
            <mxPoint y="48" as="targetPoint" />
          </mxGeometry>
        </mxCell>
        <mxCell id="VccjVxZ1QOEAnE4NQ08W-390" value="" style="endArrow=none;html=1;rounded=0;" parent="VccjVxZ1QOEAnE4NQ08W-356" edge="1">
          <mxGeometry width="50" height="50" relative="1" as="geometry">
            <mxPoint y="68" as="sourcePoint" />
            <mxPoint x="4" y="72" as="targetPoint" />
          </mxGeometry>
        </mxCell>
        <mxCell id="VccjVxZ1QOEAnE4NQ08W-391" value="" style="endArrow=none;html=1;rounded=0;" parent="VccjVxZ1QOEAnE4NQ08W-356" edge="1">
          <mxGeometry width="50" height="50" relative="1" as="geometry">
            <mxPoint x="4" y="72" as="sourcePoint" />
            <mxPoint x="8" y="68" as="targetPoint" />
          </mxGeometry>
        </mxCell>
        <mxCell id="VccjVxZ1QOEAnE4NQ08W-392" value="" style="endArrow=none;html=1;rounded=0;" parent="VccjVxZ1QOEAnE4NQ08W-356" edge="1">
          <mxGeometry width="50" height="50" relative="1" as="geometry">
            <mxPoint x="8" y="68" as="sourcePoint" />
            <mxPoint x="8" y="48" as="targetPoint" />
          </mxGeometry>
        </mxCell>
        <mxCell id="VccjVxZ1QOEAnE4NQ08W-393" value="" style="endArrow=none;html=1;rounded=0;" parent="VccjVxZ1QOEAnE4NQ08W-356" edge="1">
          <mxGeometry width="50" height="50" relative="1" as="geometry">
            <mxPoint x="8" y="72" as="sourcePoint" />
            <mxPoint x="28" y="72" as="targetPoint" />
          </mxGeometry>
        </mxCell>
        <mxCell id="VccjVxZ1QOEAnE4NQ08W-394" value="" style="endArrow=none;html=1;rounded=0;" parent="VccjVxZ1QOEAnE4NQ08W-356" edge="1">
          <mxGeometry width="50" height="50" relative="1" as="geometry">
            <mxPoint x="8" y="80" as="sourcePoint" />
            <mxPoint x="28" y="80" as="targetPoint" />
          </mxGeometry>
        </mxCell>
        <mxCell id="VccjVxZ1QOEAnE4NQ08W-395" value="" style="endArrow=none;html=1;rounded=0;" parent="VccjVxZ1QOEAnE4NQ08W-356" edge="1">
          <mxGeometry width="50" height="50" relative="1" as="geometry">
            <mxPoint x="32" y="76" as="sourcePoint" />
            <mxPoint x="28" y="80" as="targetPoint" />
          </mxGeometry>
        </mxCell>
        <mxCell id="VccjVxZ1QOEAnE4NQ08W-396" value="" style="endArrow=none;html=1;rounded=0;" parent="VccjVxZ1QOEAnE4NQ08W-356" edge="1">
          <mxGeometry width="50" height="50" relative="1" as="geometry">
            <mxPoint x="32" y="76" as="sourcePoint" />
            <mxPoint x="28" y="72" as="targetPoint" />
          </mxGeometry>
        </mxCell>
        <mxCell id="VccjVxZ1QOEAnE4NQ08W-397" value="" style="endArrow=none;html=1;rounded=0;" parent="VccjVxZ1QOEAnE4NQ08W-356" edge="1">
          <mxGeometry width="50" height="50" relative="1" as="geometry">
            <mxPoint x="8" y="80" as="sourcePoint" />
            <mxPoint x="4" y="76" as="targetPoint" />
          </mxGeometry>
        </mxCell>
        <mxCell id="VccjVxZ1QOEAnE4NQ08W-398" value="" style="endArrow=none;html=1;rounded=0;" parent="VccjVxZ1QOEAnE4NQ08W-356" edge="1">
          <mxGeometry width="50" height="50" relative="1" as="geometry">
            <mxPoint x="8" y="72" as="sourcePoint" />
            <mxPoint x="4" y="76" as="targetPoint" />
          </mxGeometry>
        </mxCell>
        <mxCell id="VccjVxZ1QOEAnE4NQ08W-399" value="" style="group" parent="1" vertex="1" connectable="0">
          <mxGeometry x="674" y="536" width="36" height="82" as="geometry" />
        </mxCell>
        <mxCell id="VccjVxZ1QOEAnE4NQ08W-400" value="" style="endArrow=none;html=1;rounded=0;" parent="VccjVxZ1QOEAnE4NQ08W-399" edge="1">
          <mxGeometry width="50" height="50" relative="1" as="geometry">
            <mxPoint x="8" as="sourcePoint" />
            <mxPoint x="28" as="targetPoint" />
          </mxGeometry>
        </mxCell>
        <mxCell id="VccjVxZ1QOEAnE4NQ08W-401" value="" style="endArrow=none;html=1;rounded=0;" parent="VccjVxZ1QOEAnE4NQ08W-399" edge="1">
          <mxGeometry width="50" height="50" relative="1" as="geometry">
            <mxPoint x="8" y="8" as="sourcePoint" />
            <mxPoint x="28" y="8" as="targetPoint" />
          </mxGeometry>
        </mxCell>
        <mxCell id="VccjVxZ1QOEAnE4NQ08W-402" value="" style="endArrow=none;html=1;rounded=0;" parent="VccjVxZ1QOEAnE4NQ08W-399" edge="1">
          <mxGeometry width="50" height="50" relative="1" as="geometry">
            <mxPoint x="32" y="4" as="sourcePoint" />
            <mxPoint x="28" y="8" as="targetPoint" />
          </mxGeometry>
        </mxCell>
        <mxCell id="VccjVxZ1QOEAnE4NQ08W-403" value="" style="endArrow=none;html=1;rounded=0;" parent="VccjVxZ1QOEAnE4NQ08W-399" edge="1">
          <mxGeometry width="50" height="50" relative="1" as="geometry">
            <mxPoint x="32" y="4" as="sourcePoint" />
            <mxPoint x="28" as="targetPoint" />
          </mxGeometry>
        </mxCell>
        <mxCell id="VccjVxZ1QOEAnE4NQ08W-404" value="" style="endArrow=none;html=1;rounded=0;" parent="VccjVxZ1QOEAnE4NQ08W-399" edge="1">
          <mxGeometry width="50" height="50" relative="1" as="geometry">
            <mxPoint x="8" y="8" as="sourcePoint" />
            <mxPoint x="4" y="4" as="targetPoint" />
          </mxGeometry>
        </mxCell>
        <mxCell id="VccjVxZ1QOEAnE4NQ08W-405" value="" style="endArrow=none;html=1;rounded=0;" parent="VccjVxZ1QOEAnE4NQ08W-399" edge="1">
          <mxGeometry width="50" height="50" relative="1" as="geometry">
            <mxPoint x="8" as="sourcePoint" />
            <mxPoint x="4" y="4" as="targetPoint" />
          </mxGeometry>
        </mxCell>
        <mxCell id="VccjVxZ1QOEAnE4NQ08W-406" value="" style="endArrow=none;html=1;rounded=0;" parent="VccjVxZ1QOEAnE4NQ08W-399" edge="1">
          <mxGeometry width="50" height="50" relative="1" as="geometry">
            <mxPoint x="32" y="8" as="sourcePoint" />
            <mxPoint x="36" y="12" as="targetPoint" />
          </mxGeometry>
        </mxCell>
        <mxCell id="VccjVxZ1QOEAnE4NQ08W-407" value="" style="endArrow=none;html=1;rounded=0;" parent="VccjVxZ1QOEAnE4NQ08W-399" edge="1">
          <mxGeometry width="50" height="50" relative="1" as="geometry">
            <mxPoint x="28" y="12" as="sourcePoint" />
            <mxPoint x="32" y="8" as="targetPoint" />
          </mxGeometry>
        </mxCell>
        <mxCell id="VccjVxZ1QOEAnE4NQ08W-408" value="" style="endArrow=none;html=1;rounded=0;" parent="VccjVxZ1QOEAnE4NQ08W-399" edge="1">
          <mxGeometry width="50" height="50" relative="1" as="geometry">
            <mxPoint x="28" y="32" as="sourcePoint" />
            <mxPoint x="28" y="12" as="targetPoint" />
          </mxGeometry>
        </mxCell>
        <mxCell id="VccjVxZ1QOEAnE4NQ08W-409" value="" style="endArrow=none;html=1;rounded=0;" parent="VccjVxZ1QOEAnE4NQ08W-399" edge="1">
          <mxGeometry width="50" height="50" relative="1" as="geometry">
            <mxPoint x="28" y="32" as="sourcePoint" />
            <mxPoint x="32" y="36" as="targetPoint" />
          </mxGeometry>
        </mxCell>
        <mxCell id="VccjVxZ1QOEAnE4NQ08W-410" value="" style="endArrow=none;html=1;rounded=0;" parent="VccjVxZ1QOEAnE4NQ08W-399" edge="1">
          <mxGeometry width="50" height="50" relative="1" as="geometry">
            <mxPoint x="32" y="36" as="sourcePoint" />
            <mxPoint x="36" y="32" as="targetPoint" />
          </mxGeometry>
        </mxCell>
        <mxCell id="VccjVxZ1QOEAnE4NQ08W-411" value="" style="endArrow=none;html=1;rounded=0;" parent="VccjVxZ1QOEAnE4NQ08W-399" edge="1">
          <mxGeometry width="50" height="50" relative="1" as="geometry">
            <mxPoint x="36" y="32" as="sourcePoint" />
            <mxPoint x="36" y="12" as="targetPoint" />
          </mxGeometry>
        </mxCell>
        <mxCell id="VccjVxZ1QOEAnE4NQ08W-412" value="" style="endArrow=none;html=1;rounded=0;" parent="VccjVxZ1QOEAnE4NQ08W-399" edge="1">
          <mxGeometry width="50" height="50" relative="1" as="geometry">
            <mxPoint x="4" y="8" as="sourcePoint" />
            <mxPoint x="8" y="12" as="targetPoint" />
          </mxGeometry>
        </mxCell>
        <mxCell id="VccjVxZ1QOEAnE4NQ08W-413" value="" style="endArrow=none;html=1;rounded=0;" parent="VccjVxZ1QOEAnE4NQ08W-399" edge="1">
          <mxGeometry width="50" height="50" relative="1" as="geometry">
            <mxPoint y="12" as="sourcePoint" />
            <mxPoint x="4" y="8" as="targetPoint" />
          </mxGeometry>
        </mxCell>
        <mxCell id="VccjVxZ1QOEAnE4NQ08W-414" value="" style="endArrow=none;html=1;rounded=0;" parent="VccjVxZ1QOEAnE4NQ08W-399" edge="1">
          <mxGeometry width="50" height="50" relative="1" as="geometry">
            <mxPoint y="32" as="sourcePoint" />
            <mxPoint y="12" as="targetPoint" />
          </mxGeometry>
        </mxCell>
        <mxCell id="VccjVxZ1QOEAnE4NQ08W-415" value="" style="endArrow=none;html=1;rounded=0;" parent="VccjVxZ1QOEAnE4NQ08W-399" edge="1">
          <mxGeometry width="50" height="50" relative="1" as="geometry">
            <mxPoint y="32" as="sourcePoint" />
            <mxPoint x="4" y="36" as="targetPoint" />
          </mxGeometry>
        </mxCell>
        <mxCell id="VccjVxZ1QOEAnE4NQ08W-416" value="" style="endArrow=none;html=1;rounded=0;" parent="VccjVxZ1QOEAnE4NQ08W-399" edge="1">
          <mxGeometry width="50" height="50" relative="1" as="geometry">
            <mxPoint x="4" y="36" as="sourcePoint" />
            <mxPoint x="8" y="32" as="targetPoint" />
          </mxGeometry>
        </mxCell>
        <mxCell id="VccjVxZ1QOEAnE4NQ08W-417" value="" style="endArrow=none;html=1;rounded=0;" parent="VccjVxZ1QOEAnE4NQ08W-399" edge="1">
          <mxGeometry width="50" height="50" relative="1" as="geometry">
            <mxPoint x="8" y="32" as="sourcePoint" />
            <mxPoint x="8" y="12" as="targetPoint" />
          </mxGeometry>
        </mxCell>
        <mxCell id="VccjVxZ1QOEAnE4NQ08W-418" value="" style="endArrow=none;html=1;rounded=0;" parent="VccjVxZ1QOEAnE4NQ08W-399" edge="1">
          <mxGeometry width="50" height="50" relative="1" as="geometry">
            <mxPoint x="8" y="36" as="sourcePoint" />
            <mxPoint x="28" y="36" as="targetPoint" />
          </mxGeometry>
        </mxCell>
        <mxCell id="VccjVxZ1QOEAnE4NQ08W-419" value="" style="endArrow=none;html=1;rounded=0;" parent="VccjVxZ1QOEAnE4NQ08W-399" edge="1">
          <mxGeometry width="50" height="50" relative="1" as="geometry">
            <mxPoint x="8" y="44" as="sourcePoint" />
            <mxPoint x="28" y="44" as="targetPoint" />
          </mxGeometry>
        </mxCell>
        <mxCell id="VccjVxZ1QOEAnE4NQ08W-420" value="" style="endArrow=none;html=1;rounded=0;" parent="VccjVxZ1QOEAnE4NQ08W-399" edge="1">
          <mxGeometry width="50" height="50" relative="1" as="geometry">
            <mxPoint x="32" y="40" as="sourcePoint" />
            <mxPoint x="28" y="44" as="targetPoint" />
          </mxGeometry>
        </mxCell>
        <mxCell id="VccjVxZ1QOEAnE4NQ08W-421" value="" style="endArrow=none;html=1;rounded=0;" parent="VccjVxZ1QOEAnE4NQ08W-399" edge="1">
          <mxGeometry width="50" height="50" relative="1" as="geometry">
            <mxPoint x="32" y="40" as="sourcePoint" />
            <mxPoint x="28" y="36" as="targetPoint" />
          </mxGeometry>
        </mxCell>
        <mxCell id="VccjVxZ1QOEAnE4NQ08W-422" value="" style="endArrow=none;html=1;rounded=0;" parent="VccjVxZ1QOEAnE4NQ08W-399" edge="1">
          <mxGeometry width="50" height="50" relative="1" as="geometry">
            <mxPoint x="8" y="44" as="sourcePoint" />
            <mxPoint x="4" y="40" as="targetPoint" />
          </mxGeometry>
        </mxCell>
        <mxCell id="VccjVxZ1QOEAnE4NQ08W-423" value="" style="endArrow=none;html=1;rounded=0;" parent="VccjVxZ1QOEAnE4NQ08W-399" edge="1">
          <mxGeometry width="50" height="50" relative="1" as="geometry">
            <mxPoint x="8" y="36" as="sourcePoint" />
            <mxPoint x="4" y="40" as="targetPoint" />
          </mxGeometry>
        </mxCell>
        <mxCell id="VccjVxZ1QOEAnE4NQ08W-424" value="" style="endArrow=none;html=1;rounded=0;" parent="VccjVxZ1QOEAnE4NQ08W-399" edge="1">
          <mxGeometry width="50" height="50" relative="1" as="geometry">
            <mxPoint x="32" y="44" as="sourcePoint" />
            <mxPoint x="36" y="48" as="targetPoint" />
          </mxGeometry>
        </mxCell>
        <mxCell id="VccjVxZ1QOEAnE4NQ08W-425" value="" style="endArrow=none;html=1;rounded=0;" parent="VccjVxZ1QOEAnE4NQ08W-399" edge="1">
          <mxGeometry width="50" height="50" relative="1" as="geometry">
            <mxPoint x="28" y="48" as="sourcePoint" />
            <mxPoint x="32" y="44" as="targetPoint" />
          </mxGeometry>
        </mxCell>
        <mxCell id="VccjVxZ1QOEAnE4NQ08W-426" value="" style="endArrow=none;html=1;rounded=0;" parent="VccjVxZ1QOEAnE4NQ08W-399" edge="1">
          <mxGeometry width="50" height="50" relative="1" as="geometry">
            <mxPoint x="28" y="68" as="sourcePoint" />
            <mxPoint x="28" y="48" as="targetPoint" />
          </mxGeometry>
        </mxCell>
        <mxCell id="VccjVxZ1QOEAnE4NQ08W-427" value="" style="endArrow=none;html=1;rounded=0;" parent="VccjVxZ1QOEAnE4NQ08W-399" edge="1">
          <mxGeometry width="50" height="50" relative="1" as="geometry">
            <mxPoint x="28" y="68" as="sourcePoint" />
            <mxPoint x="32" y="72" as="targetPoint" />
          </mxGeometry>
        </mxCell>
        <mxCell id="VccjVxZ1QOEAnE4NQ08W-428" value="" style="endArrow=none;html=1;rounded=0;" parent="VccjVxZ1QOEAnE4NQ08W-399" edge="1">
          <mxGeometry width="50" height="50" relative="1" as="geometry">
            <mxPoint x="32" y="72" as="sourcePoint" />
            <mxPoint x="36" y="68" as="targetPoint" />
          </mxGeometry>
        </mxCell>
        <mxCell id="VccjVxZ1QOEAnE4NQ08W-429" value="" style="endArrow=none;html=1;rounded=0;" parent="VccjVxZ1QOEAnE4NQ08W-399" edge="1">
          <mxGeometry width="50" height="50" relative="1" as="geometry">
            <mxPoint x="36" y="68" as="sourcePoint" />
            <mxPoint x="36" y="48" as="targetPoint" />
          </mxGeometry>
        </mxCell>
        <mxCell id="VccjVxZ1QOEAnE4NQ08W-430" value="" style="endArrow=none;html=1;rounded=0;" parent="VccjVxZ1QOEAnE4NQ08W-399" edge="1">
          <mxGeometry width="50" height="50" relative="1" as="geometry">
            <mxPoint x="4" y="44" as="sourcePoint" />
            <mxPoint x="8" y="48" as="targetPoint" />
          </mxGeometry>
        </mxCell>
        <mxCell id="VccjVxZ1QOEAnE4NQ08W-431" value="" style="endArrow=none;html=1;rounded=0;" parent="VccjVxZ1QOEAnE4NQ08W-399" edge="1">
          <mxGeometry width="50" height="50" relative="1" as="geometry">
            <mxPoint y="48" as="sourcePoint" />
            <mxPoint x="4" y="44" as="targetPoint" />
          </mxGeometry>
        </mxCell>
        <mxCell id="VccjVxZ1QOEAnE4NQ08W-432" value="" style="endArrow=none;html=1;rounded=0;" parent="VccjVxZ1QOEAnE4NQ08W-399" edge="1">
          <mxGeometry width="50" height="50" relative="1" as="geometry">
            <mxPoint y="68" as="sourcePoint" />
            <mxPoint y="48" as="targetPoint" />
          </mxGeometry>
        </mxCell>
        <mxCell id="VccjVxZ1QOEAnE4NQ08W-433" value="" style="endArrow=none;html=1;rounded=0;" parent="VccjVxZ1QOEAnE4NQ08W-399" edge="1">
          <mxGeometry width="50" height="50" relative="1" as="geometry">
            <mxPoint y="68" as="sourcePoint" />
            <mxPoint x="4" y="72" as="targetPoint" />
          </mxGeometry>
        </mxCell>
        <mxCell id="VccjVxZ1QOEAnE4NQ08W-434" value="" style="endArrow=none;html=1;rounded=0;" parent="VccjVxZ1QOEAnE4NQ08W-399" edge="1">
          <mxGeometry width="50" height="50" relative="1" as="geometry">
            <mxPoint x="4" y="72" as="sourcePoint" />
            <mxPoint x="8" y="68" as="targetPoint" />
          </mxGeometry>
        </mxCell>
        <mxCell id="VccjVxZ1QOEAnE4NQ08W-435" value="" style="endArrow=none;html=1;rounded=0;" parent="VccjVxZ1QOEAnE4NQ08W-399" edge="1">
          <mxGeometry width="50" height="50" relative="1" as="geometry">
            <mxPoint x="8" y="68" as="sourcePoint" />
            <mxPoint x="8" y="48" as="targetPoint" />
          </mxGeometry>
        </mxCell>
        <mxCell id="VccjVxZ1QOEAnE4NQ08W-436" value="" style="endArrow=none;html=1;rounded=0;" parent="VccjVxZ1QOEAnE4NQ08W-399" edge="1">
          <mxGeometry width="50" height="50" relative="1" as="geometry">
            <mxPoint x="8" y="72" as="sourcePoint" />
            <mxPoint x="28" y="72" as="targetPoint" />
          </mxGeometry>
        </mxCell>
        <mxCell id="VccjVxZ1QOEAnE4NQ08W-437" value="" style="endArrow=none;html=1;rounded=0;" parent="VccjVxZ1QOEAnE4NQ08W-399" edge="1">
          <mxGeometry width="50" height="50" relative="1" as="geometry">
            <mxPoint x="8" y="80" as="sourcePoint" />
            <mxPoint x="28" y="80" as="targetPoint" />
          </mxGeometry>
        </mxCell>
        <mxCell id="VccjVxZ1QOEAnE4NQ08W-438" value="" style="endArrow=none;html=1;rounded=0;" parent="VccjVxZ1QOEAnE4NQ08W-399" edge="1">
          <mxGeometry width="50" height="50" relative="1" as="geometry">
            <mxPoint x="32" y="76" as="sourcePoint" />
            <mxPoint x="28" y="80" as="targetPoint" />
          </mxGeometry>
        </mxCell>
        <mxCell id="VccjVxZ1QOEAnE4NQ08W-439" value="" style="endArrow=none;html=1;rounded=0;" parent="VccjVxZ1QOEAnE4NQ08W-399" edge="1">
          <mxGeometry width="50" height="50" relative="1" as="geometry">
            <mxPoint x="32" y="76" as="sourcePoint" />
            <mxPoint x="28" y="72" as="targetPoint" />
          </mxGeometry>
        </mxCell>
        <mxCell id="VccjVxZ1QOEAnE4NQ08W-440" value="" style="endArrow=none;html=1;rounded=0;" parent="VccjVxZ1QOEAnE4NQ08W-399" edge="1">
          <mxGeometry width="50" height="50" relative="1" as="geometry">
            <mxPoint x="8" y="80" as="sourcePoint" />
            <mxPoint x="4" y="76" as="targetPoint" />
          </mxGeometry>
        </mxCell>
        <mxCell id="VccjVxZ1QOEAnE4NQ08W-441" value="" style="endArrow=none;html=1;rounded=0;" parent="VccjVxZ1QOEAnE4NQ08W-399" edge="1">
          <mxGeometry width="50" height="50" relative="1" as="geometry">
            <mxPoint x="8" y="72" as="sourcePoint" />
            <mxPoint x="4" y="76" as="targetPoint" />
          </mxGeometry>
        </mxCell>
        <mxCell id="VccjVxZ1QOEAnE4NQ08W-681" value="" style="group" parent="VccjVxZ1QOEAnE4NQ08W-399" vertex="1" connectable="0">
          <mxGeometry x="-13" y="70" width="12" height="12" as="geometry" />
        </mxCell>
        <mxCell id="VccjVxZ1QOEAnE4NQ08W-641" value="" style="endArrow=none;html=1;rounded=0;" parent="VccjVxZ1QOEAnE4NQ08W-681" edge="1">
          <mxGeometry width="50" height="50" relative="1" as="geometry">
            <mxPoint x="12" y="6" as="sourcePoint" />
            <mxPoint x="6" y="12" as="targetPoint" />
          </mxGeometry>
        </mxCell>
        <mxCell id="VccjVxZ1QOEAnE4NQ08W-642" value="" style="endArrow=none;html=1;rounded=0;" parent="VccjVxZ1QOEAnE4NQ08W-681" edge="1">
          <mxGeometry width="50" height="50" relative="1" as="geometry">
            <mxPoint x="12" y="6" as="sourcePoint" />
            <mxPoint x="6" as="targetPoint" />
          </mxGeometry>
        </mxCell>
        <mxCell id="VccjVxZ1QOEAnE4NQ08W-643" value="" style="endArrow=none;html=1;rounded=0;" parent="VccjVxZ1QOEAnE4NQ08W-681" edge="1">
          <mxGeometry width="50" height="50" relative="1" as="geometry">
            <mxPoint x="6" y="12" as="sourcePoint" />
            <mxPoint y="6" as="targetPoint" />
          </mxGeometry>
        </mxCell>
        <mxCell id="VccjVxZ1QOEAnE4NQ08W-644" value="" style="endArrow=none;html=1;rounded=0;" parent="VccjVxZ1QOEAnE4NQ08W-681" edge="1">
          <mxGeometry width="50" height="50" relative="1" as="geometry">
            <mxPoint x="6" as="sourcePoint" />
            <mxPoint y="6" as="targetPoint" />
          </mxGeometry>
        </mxCell>
        <mxCell id="VccjVxZ1QOEAnE4NQ08W-442" value="" style="endArrow=none;html=1;rounded=0;exitX=0.143;exitY=0;exitDx=0;exitDy=0;exitPerimeter=0;" parent="1" edge="1">
          <mxGeometry width="50" height="50" relative="1" as="geometry">
            <mxPoint x="640.03" y="520" as="sourcePoint" />
            <mxPoint x="640" y="480" as="targetPoint" />
          </mxGeometry>
        </mxCell>
        <mxCell id="VccjVxZ1QOEAnE4NQ08W-443" value="" style="endArrow=none;html=1;rounded=0;" parent="1" edge="1">
          <mxGeometry width="50" height="50" relative="1" as="geometry">
            <mxPoint x="670" y="520" as="sourcePoint" />
            <mxPoint x="670" y="480" as="targetPoint" />
          </mxGeometry>
        </mxCell>
        <mxCell id="VccjVxZ1QOEAnE4NQ08W-444" value="" style="endArrow=none;html=1;rounded=0;exitX=0.143;exitY=0;exitDx=0;exitDy=0;exitPerimeter=0;" parent="1" edge="1">
          <mxGeometry width="50" height="50" relative="1" as="geometry">
            <mxPoint x="699.76" y="520" as="sourcePoint" />
            <mxPoint x="700" y="460" as="targetPoint" />
          </mxGeometry>
        </mxCell>
        <mxCell id="VccjVxZ1QOEAnE4NQ08W-455" value="" style="endArrow=none;html=1;rounded=0;strokeColor=#FF0000;" parent="1" edge="1">
          <mxGeometry width="50" height="50" relative="1" as="geometry">
            <mxPoint x="50" y="950" as="sourcePoint" />
            <mxPoint x="49.829999999999984" y="270" as="targetPoint" />
          </mxGeometry>
        </mxCell>
        <mxCell id="VccjVxZ1QOEAnE4NQ08W-456" value="" style="endArrow=none;html=1;rounded=0;strokeColor=#000000;" parent="1" edge="1">
          <mxGeometry width="50" height="50" relative="1" as="geometry">
            <mxPoint x="80" y="850" as="sourcePoint" />
            <mxPoint x="79.82999999999998" y="270" as="targetPoint" />
          </mxGeometry>
        </mxCell>
        <mxCell id="VccjVxZ1QOEAnE4NQ08W-457" value="" style="endArrow=none;html=1;rounded=0;edgeStyle=orthogonalEdgeStyle;exitX=0;exitY=0.5;exitDx=0;exitDy=0;" parent="1" source="VccjVxZ1QOEAnE4NQ08W-733" edge="1">
          <mxGeometry width="50" height="50" relative="1" as="geometry">
            <mxPoint x="110" y="690" as="sourcePoint" />
            <mxPoint x="109.58999999999997" y="270" as="targetPoint" />
          </mxGeometry>
        </mxCell>
        <mxCell id="VccjVxZ1QOEAnE4NQ08W-550" value="" style="endArrow=none;html=1;rounded=0;jumpStyle=none;" parent="1" edge="1">
          <mxGeometry width="50" height="50" relative="1" as="geometry">
            <mxPoint x="640" y="420" as="sourcePoint" />
            <mxPoint x="640" y="480" as="targetPoint" />
          </mxGeometry>
        </mxCell>
        <mxCell id="VccjVxZ1QOEAnE4NQ08W-551" value="" style="endArrow=none;html=1;rounded=0;" parent="1" edge="1">
          <mxGeometry width="50" height="50" relative="1" as="geometry">
            <mxPoint x="640" y="420" as="sourcePoint" />
            <mxPoint x="520" y="420" as="targetPoint" />
          </mxGeometry>
        </mxCell>
        <mxCell id="VccjVxZ1QOEAnE4NQ08W-682" value="" style="group" parent="1" vertex="1" connectable="0">
          <mxGeometry x="711" y="607" width="12" height="12" as="geometry" />
        </mxCell>
        <mxCell id="VccjVxZ1QOEAnE4NQ08W-683" value="" style="endArrow=none;html=1;rounded=0;" parent="VccjVxZ1QOEAnE4NQ08W-682" edge="1">
          <mxGeometry width="50" height="50" relative="1" as="geometry">
            <mxPoint x="12" y="6" as="sourcePoint" />
            <mxPoint x="6" y="12" as="targetPoint" />
          </mxGeometry>
        </mxCell>
        <mxCell id="VccjVxZ1QOEAnE4NQ08W-684" value="" style="endArrow=none;html=1;rounded=0;" parent="VccjVxZ1QOEAnE4NQ08W-682" edge="1">
          <mxGeometry width="50" height="50" relative="1" as="geometry">
            <mxPoint x="12" y="6" as="sourcePoint" />
            <mxPoint x="6" as="targetPoint" />
          </mxGeometry>
        </mxCell>
        <mxCell id="VccjVxZ1QOEAnE4NQ08W-685" value="" style="endArrow=none;html=1;rounded=0;" parent="VccjVxZ1QOEAnE4NQ08W-682" edge="1">
          <mxGeometry width="50" height="50" relative="1" as="geometry">
            <mxPoint x="6" y="12" as="sourcePoint" />
            <mxPoint y="6" as="targetPoint" />
          </mxGeometry>
        </mxCell>
        <mxCell id="VccjVxZ1QOEAnE4NQ08W-686" value="" style="endArrow=none;html=1;rounded=0;" parent="VccjVxZ1QOEAnE4NQ08W-682" edge="1">
          <mxGeometry width="50" height="50" relative="1" as="geometry">
            <mxPoint x="6" as="sourcePoint" />
            <mxPoint y="6" as="targetPoint" />
          </mxGeometry>
        </mxCell>
        <mxCell id="VccjVxZ1QOEAnE4NQ08W-687" value="" style="group" parent="1" vertex="1" connectable="0">
          <mxGeometry x="761" y="607" width="12" height="12" as="geometry" />
        </mxCell>
        <mxCell id="VccjVxZ1QOEAnE4NQ08W-688" value="" style="endArrow=none;html=1;rounded=0;" parent="VccjVxZ1QOEAnE4NQ08W-687" edge="1">
          <mxGeometry width="50" height="50" relative="1" as="geometry">
            <mxPoint x="12" y="6" as="sourcePoint" />
            <mxPoint x="6" y="12" as="targetPoint" />
          </mxGeometry>
        </mxCell>
        <mxCell id="VccjVxZ1QOEAnE4NQ08W-689" value="" style="endArrow=none;html=1;rounded=0;" parent="VccjVxZ1QOEAnE4NQ08W-687" edge="1">
          <mxGeometry width="50" height="50" relative="1" as="geometry">
            <mxPoint x="12" y="6" as="sourcePoint" />
            <mxPoint x="6" as="targetPoint" />
          </mxGeometry>
        </mxCell>
        <mxCell id="VccjVxZ1QOEAnE4NQ08W-690" value="" style="endArrow=none;html=1;rounded=0;" parent="VccjVxZ1QOEAnE4NQ08W-687" edge="1">
          <mxGeometry width="50" height="50" relative="1" as="geometry">
            <mxPoint x="6" y="12" as="sourcePoint" />
            <mxPoint y="6" as="targetPoint" />
          </mxGeometry>
        </mxCell>
        <mxCell id="VccjVxZ1QOEAnE4NQ08W-691" value="" style="endArrow=none;html=1;rounded=0;" parent="VccjVxZ1QOEAnE4NQ08W-687" edge="1">
          <mxGeometry width="50" height="50" relative="1" as="geometry">
            <mxPoint x="6" as="sourcePoint" />
            <mxPoint y="6" as="targetPoint" />
          </mxGeometry>
        </mxCell>
        <mxCell id="VccjVxZ1QOEAnE4NQ08W-692" value="" style="group" parent="1" vertex="1" connectable="0">
          <mxGeometry x="808" y="608" width="12" height="12" as="geometry" />
        </mxCell>
        <mxCell id="VccjVxZ1QOEAnE4NQ08W-693" value="" style="endArrow=none;html=1;rounded=0;" parent="VccjVxZ1QOEAnE4NQ08W-692" edge="1">
          <mxGeometry width="50" height="50" relative="1" as="geometry">
            <mxPoint x="12" y="6" as="sourcePoint" />
            <mxPoint x="6" y="12" as="targetPoint" />
          </mxGeometry>
        </mxCell>
        <mxCell id="VccjVxZ1QOEAnE4NQ08W-694" value="" style="endArrow=none;html=1;rounded=0;" parent="VccjVxZ1QOEAnE4NQ08W-692" edge="1">
          <mxGeometry width="50" height="50" relative="1" as="geometry">
            <mxPoint x="12" y="6" as="sourcePoint" />
            <mxPoint x="6" as="targetPoint" />
          </mxGeometry>
        </mxCell>
        <mxCell id="VccjVxZ1QOEAnE4NQ08W-695" value="" style="endArrow=none;html=1;rounded=0;" parent="VccjVxZ1QOEAnE4NQ08W-692" edge="1">
          <mxGeometry width="50" height="50" relative="1" as="geometry">
            <mxPoint x="6" y="12" as="sourcePoint" />
            <mxPoint y="6" as="targetPoint" />
          </mxGeometry>
        </mxCell>
        <mxCell id="VccjVxZ1QOEAnE4NQ08W-696" value="" style="endArrow=none;html=1;rounded=0;" parent="VccjVxZ1QOEAnE4NQ08W-692" edge="1">
          <mxGeometry width="50" height="50" relative="1" as="geometry">
            <mxPoint x="6" as="sourcePoint" />
            <mxPoint y="6" as="targetPoint" />
          </mxGeometry>
        </mxCell>
        <mxCell id="VccjVxZ1QOEAnE4NQ08W-697" value="" style="endArrow=none;html=1;rounded=0;entryX=0.574;entryY=0;entryDx=0;entryDy=0;entryPerimeter=0;" parent="1" target="VccjVxZ1QOEAnE4NQ08W-267" edge="1">
          <mxGeometry width="50" height="50" relative="1" as="geometry">
            <mxPoint x="730" y="380" as="sourcePoint" />
            <mxPoint x="730" y="480" as="targetPoint" />
          </mxGeometry>
        </mxCell>
        <mxCell id="VccjVxZ1QOEAnE4NQ08W-698" value="" style="endArrow=none;html=1;rounded=0;" parent="1" edge="1">
          <mxGeometry width="50" height="50" relative="1" as="geometry">
            <mxPoint x="730" y="380" as="sourcePoint" />
            <mxPoint x="520" y="380" as="targetPoint" />
          </mxGeometry>
        </mxCell>
        <mxCell id="VccjVxZ1QOEAnE4NQ08W-700" value="" style="endArrow=none;html=1;rounded=0;" parent="1" edge="1">
          <mxGeometry width="50" height="50" relative="1" as="geometry">
            <mxPoint x="640" y="790" as="sourcePoint" />
            <mxPoint x="639.67" y="630" as="targetPoint" />
          </mxGeometry>
        </mxCell>
        <mxCell id="VccjVxZ1QOEAnE4NQ08W-701" value="" style="endArrow=none;html=1;rounded=0;" parent="1" edge="1">
          <mxGeometry width="50" height="50" relative="1" as="geometry">
            <mxPoint x="670" y="770" as="sourcePoint" />
            <mxPoint x="669.67" y="630" as="targetPoint" />
          </mxGeometry>
        </mxCell>
        <mxCell id="VccjVxZ1QOEAnE4NQ08W-702" value="" style="endArrow=none;html=1;rounded=0;" parent="1" edge="1">
          <mxGeometry width="50" height="50" relative="1" as="geometry">
            <mxPoint x="700" y="930" as="sourcePoint" />
            <mxPoint x="699.43" y="630" as="targetPoint" />
          </mxGeometry>
        </mxCell>
        <mxCell id="VccjVxZ1QOEAnE4NQ08W-705" value="" style="endArrow=none;html=1;rounded=0;" parent="1" edge="1">
          <mxGeometry width="50" height="50" relative="1" as="geometry">
            <mxPoint x="789.8" y="670" as="sourcePoint" />
            <mxPoint x="789.8" y="630" as="targetPoint" />
          </mxGeometry>
        </mxCell>
        <mxCell id="VccjVxZ1QOEAnE4NQ08W-706" value="" style="endArrow=none;html=1;rounded=0;exitX=0.714;exitY=0;exitDx=0;exitDy=0;exitPerimeter=0;" parent="1" source="VccjVxZ1QOEAnE4NQ08W-267" edge="1">
          <mxGeometry width="50" height="50" relative="1" as="geometry">
            <mxPoint x="760" y="480" as="sourcePoint" />
            <mxPoint x="760" y="340" as="targetPoint" />
          </mxGeometry>
        </mxCell>
        <mxCell id="VccjVxZ1QOEAnE4NQ08W-707" value="" style="endArrow=none;html=1;rounded=0;" parent="1" edge="1">
          <mxGeometry width="50" height="50" relative="1" as="geometry">
            <mxPoint x="520" y="340" as="sourcePoint" />
            <mxPoint x="760" y="340" as="targetPoint" />
          </mxGeometry>
        </mxCell>
        <mxCell id="VccjVxZ1QOEAnE4NQ08W-504" value="" style="group" parent="1" vertex="1" connectable="0">
          <mxGeometry x="850" y="650" width="100" height="44" as="geometry" />
        </mxCell>
        <mxCell id="VccjVxZ1QOEAnE4NQ08W-476" value="" style="group" parent="VccjVxZ1QOEAnE4NQ08W-504" vertex="1" connectable="0">
          <mxGeometry width="100" height="20" as="geometry" />
        </mxCell>
        <mxCell id="VccjVxZ1QOEAnE4NQ08W-477" value="" style="endArrow=none;html=1;rounded=0;" parent="VccjVxZ1QOEAnE4NQ08W-476" edge="1">
          <mxGeometry width="50" height="50" relative="1" as="geometry">
            <mxPoint x="20" y="20" as="sourcePoint" />
            <mxPoint x="30" as="targetPoint" />
          </mxGeometry>
        </mxCell>
        <mxCell id="VccjVxZ1QOEAnE4NQ08W-478" value="" style="endArrow=none;html=1;rounded=0;" parent="VccjVxZ1QOEAnE4NQ08W-476" edge="1">
          <mxGeometry width="50" height="50" relative="1" as="geometry">
            <mxPoint x="30" as="sourcePoint" />
            <mxPoint x="40" y="20" as="targetPoint" />
          </mxGeometry>
        </mxCell>
        <mxCell id="VccjVxZ1QOEAnE4NQ08W-479" value="" style="endArrow=none;html=1;rounded=0;" parent="VccjVxZ1QOEAnE4NQ08W-476" edge="1">
          <mxGeometry width="50" height="50" relative="1" as="geometry">
            <mxPoint x="40" y="20" as="sourcePoint" />
            <mxPoint x="50" as="targetPoint" />
          </mxGeometry>
        </mxCell>
        <mxCell id="VccjVxZ1QOEAnE4NQ08W-480" value="" style="endArrow=none;html=1;rounded=0;" parent="VccjVxZ1QOEAnE4NQ08W-476" edge="1">
          <mxGeometry width="50" height="50" relative="1" as="geometry">
            <mxPoint x="50" as="sourcePoint" />
            <mxPoint x="60" y="20" as="targetPoint" />
          </mxGeometry>
        </mxCell>
        <mxCell id="VccjVxZ1QOEAnE4NQ08W-481" value="" style="endArrow=none;html=1;rounded=0;" parent="VccjVxZ1QOEAnE4NQ08W-476" edge="1">
          <mxGeometry width="50" height="50" relative="1" as="geometry">
            <mxPoint x="60" y="20" as="sourcePoint" />
            <mxPoint x="70" as="targetPoint" />
          </mxGeometry>
        </mxCell>
        <mxCell id="VccjVxZ1QOEAnE4NQ08W-482" value="" style="endArrow=none;html=1;rounded=0;" parent="VccjVxZ1QOEAnE4NQ08W-476" edge="1">
          <mxGeometry width="50" height="50" relative="1" as="geometry">
            <mxPoint x="70" as="sourcePoint" />
            <mxPoint x="80" y="20" as="targetPoint" />
          </mxGeometry>
        </mxCell>
        <mxCell id="VccjVxZ1QOEAnE4NQ08W-483" value="" style="endArrow=none;html=1;rounded=0;" parent="VccjVxZ1QOEAnE4NQ08W-476" edge="1">
          <mxGeometry width="50" height="50" relative="1" as="geometry">
            <mxPoint x="20" y="20" as="sourcePoint" />
            <mxPoint y="20" as="targetPoint" />
          </mxGeometry>
        </mxCell>
        <mxCell id="VccjVxZ1QOEAnE4NQ08W-484" value="" style="endArrow=none;html=1;rounded=0;" parent="VccjVxZ1QOEAnE4NQ08W-476" edge="1">
          <mxGeometry width="50" height="50" relative="1" as="geometry">
            <mxPoint x="80" y="20" as="sourcePoint" />
            <mxPoint x="100" y="20" as="targetPoint" />
          </mxGeometry>
        </mxCell>
        <mxCell id="VccjVxZ1QOEAnE4NQ08W-503" value="220Ω" style="text;html=1;align=center;verticalAlign=middle;whiteSpace=wrap;rounded=0;" parent="VccjVxZ1QOEAnE4NQ08W-504" vertex="1">
          <mxGeometry x="20" y="14" width="60" height="30" as="geometry" />
        </mxCell>
        <mxCell id="VccjVxZ1QOEAnE4NQ08W-505" value="" style="group" parent="1" vertex="1" connectable="0">
          <mxGeometry x="425" y="320" width="100" height="44" as="geometry" />
        </mxCell>
        <mxCell id="VccjVxZ1QOEAnE4NQ08W-506" value="" style="group" parent="VccjVxZ1QOEAnE4NQ08W-505" vertex="1" connectable="0">
          <mxGeometry width="100" height="20" as="geometry" />
        </mxCell>
        <mxCell id="VccjVxZ1QOEAnE4NQ08W-507" value="" style="endArrow=none;html=1;rounded=0;" parent="VccjVxZ1QOEAnE4NQ08W-506" edge="1">
          <mxGeometry width="50" height="50" relative="1" as="geometry">
            <mxPoint x="20" y="20" as="sourcePoint" />
            <mxPoint x="30" as="targetPoint" />
          </mxGeometry>
        </mxCell>
        <mxCell id="VccjVxZ1QOEAnE4NQ08W-508" value="" style="endArrow=none;html=1;rounded=0;" parent="VccjVxZ1QOEAnE4NQ08W-506" edge="1">
          <mxGeometry width="50" height="50" relative="1" as="geometry">
            <mxPoint x="30" as="sourcePoint" />
            <mxPoint x="40" y="20" as="targetPoint" />
          </mxGeometry>
        </mxCell>
        <mxCell id="VccjVxZ1QOEAnE4NQ08W-509" value="" style="endArrow=none;html=1;rounded=0;" parent="VccjVxZ1QOEAnE4NQ08W-506" edge="1">
          <mxGeometry width="50" height="50" relative="1" as="geometry">
            <mxPoint x="40" y="20" as="sourcePoint" />
            <mxPoint x="50" as="targetPoint" />
          </mxGeometry>
        </mxCell>
        <mxCell id="VccjVxZ1QOEAnE4NQ08W-510" value="" style="endArrow=none;html=1;rounded=0;" parent="VccjVxZ1QOEAnE4NQ08W-506" edge="1">
          <mxGeometry width="50" height="50" relative="1" as="geometry">
            <mxPoint x="50" as="sourcePoint" />
            <mxPoint x="60" y="20" as="targetPoint" />
          </mxGeometry>
        </mxCell>
        <mxCell id="VccjVxZ1QOEAnE4NQ08W-511" value="" style="endArrow=none;html=1;rounded=0;" parent="VccjVxZ1QOEAnE4NQ08W-506" edge="1">
          <mxGeometry width="50" height="50" relative="1" as="geometry">
            <mxPoint x="60" y="20" as="sourcePoint" />
            <mxPoint x="70" as="targetPoint" />
          </mxGeometry>
        </mxCell>
        <mxCell id="VccjVxZ1QOEAnE4NQ08W-512" value="" style="endArrow=none;html=1;rounded=0;" parent="VccjVxZ1QOEAnE4NQ08W-506" edge="1">
          <mxGeometry width="50" height="50" relative="1" as="geometry">
            <mxPoint x="70" as="sourcePoint" />
            <mxPoint x="80" y="20" as="targetPoint" />
          </mxGeometry>
        </mxCell>
        <mxCell id="VccjVxZ1QOEAnE4NQ08W-513" value="" style="endArrow=none;html=1;rounded=0;" parent="VccjVxZ1QOEAnE4NQ08W-506" edge="1">
          <mxGeometry width="50" height="50" relative="1" as="geometry">
            <mxPoint x="20" y="20" as="sourcePoint" />
            <mxPoint y="20" as="targetPoint" />
          </mxGeometry>
        </mxCell>
        <mxCell id="VccjVxZ1QOEAnE4NQ08W-514" value="" style="endArrow=none;html=1;rounded=0;" parent="VccjVxZ1QOEAnE4NQ08W-506" edge="1">
          <mxGeometry width="50" height="50" relative="1" as="geometry">
            <mxPoint x="80" y="20" as="sourcePoint" />
            <mxPoint x="100" y="20" as="targetPoint" />
          </mxGeometry>
        </mxCell>
        <mxCell id="VccjVxZ1QOEAnE4NQ08W-515" value="220Ω" style="text;html=1;align=center;verticalAlign=middle;whiteSpace=wrap;rounded=0;" parent="VccjVxZ1QOEAnE4NQ08W-505" vertex="1">
          <mxGeometry x="20" y="14" width="60" height="30" as="geometry" />
        </mxCell>
        <mxCell id="VccjVxZ1QOEAnE4NQ08W-527" value="" style="group" parent="1" vertex="1" connectable="0">
          <mxGeometry x="425" y="360" width="100" height="44" as="geometry" />
        </mxCell>
        <mxCell id="VccjVxZ1QOEAnE4NQ08W-528" value="" style="group" parent="VccjVxZ1QOEAnE4NQ08W-527" vertex="1" connectable="0">
          <mxGeometry width="100" height="20" as="geometry" />
        </mxCell>
        <mxCell id="VccjVxZ1QOEAnE4NQ08W-529" value="" style="endArrow=none;html=1;rounded=0;" parent="VccjVxZ1QOEAnE4NQ08W-528" edge="1">
          <mxGeometry width="50" height="50" relative="1" as="geometry">
            <mxPoint x="20" y="20" as="sourcePoint" />
            <mxPoint x="30" as="targetPoint" />
          </mxGeometry>
        </mxCell>
        <mxCell id="VccjVxZ1QOEAnE4NQ08W-530" value="" style="endArrow=none;html=1;rounded=0;" parent="VccjVxZ1QOEAnE4NQ08W-528" edge="1">
          <mxGeometry width="50" height="50" relative="1" as="geometry">
            <mxPoint x="30" as="sourcePoint" />
            <mxPoint x="40" y="20" as="targetPoint" />
          </mxGeometry>
        </mxCell>
        <mxCell id="VccjVxZ1QOEAnE4NQ08W-531" value="" style="endArrow=none;html=1;rounded=0;" parent="VccjVxZ1QOEAnE4NQ08W-528" edge="1">
          <mxGeometry width="50" height="50" relative="1" as="geometry">
            <mxPoint x="40" y="20" as="sourcePoint" />
            <mxPoint x="50" as="targetPoint" />
          </mxGeometry>
        </mxCell>
        <mxCell id="VccjVxZ1QOEAnE4NQ08W-532" value="" style="endArrow=none;html=1;rounded=0;" parent="VccjVxZ1QOEAnE4NQ08W-528" edge="1">
          <mxGeometry width="50" height="50" relative="1" as="geometry">
            <mxPoint x="50" as="sourcePoint" />
            <mxPoint x="60" y="20" as="targetPoint" />
          </mxGeometry>
        </mxCell>
        <mxCell id="VccjVxZ1QOEAnE4NQ08W-533" value="" style="endArrow=none;html=1;rounded=0;" parent="VccjVxZ1QOEAnE4NQ08W-528" edge="1">
          <mxGeometry width="50" height="50" relative="1" as="geometry">
            <mxPoint x="60" y="20" as="sourcePoint" />
            <mxPoint x="70" as="targetPoint" />
          </mxGeometry>
        </mxCell>
        <mxCell id="VccjVxZ1QOEAnE4NQ08W-534" value="" style="endArrow=none;html=1;rounded=0;" parent="VccjVxZ1QOEAnE4NQ08W-528" edge="1">
          <mxGeometry width="50" height="50" relative="1" as="geometry">
            <mxPoint x="70" as="sourcePoint" />
            <mxPoint x="80" y="20" as="targetPoint" />
          </mxGeometry>
        </mxCell>
        <mxCell id="VccjVxZ1QOEAnE4NQ08W-535" value="" style="endArrow=none;html=1;rounded=0;" parent="VccjVxZ1QOEAnE4NQ08W-528" edge="1">
          <mxGeometry width="50" height="50" relative="1" as="geometry">
            <mxPoint x="20" y="20" as="sourcePoint" />
            <mxPoint y="20" as="targetPoint" />
          </mxGeometry>
        </mxCell>
        <mxCell id="VccjVxZ1QOEAnE4NQ08W-536" value="" style="endArrow=none;html=1;rounded=0;" parent="VccjVxZ1QOEAnE4NQ08W-528" edge="1">
          <mxGeometry width="50" height="50" relative="1" as="geometry">
            <mxPoint x="80" y="20" as="sourcePoint" />
            <mxPoint x="100" y="20" as="targetPoint" />
          </mxGeometry>
        </mxCell>
        <mxCell id="VccjVxZ1QOEAnE4NQ08W-537" value="220Ω" style="text;html=1;align=center;verticalAlign=middle;whiteSpace=wrap;rounded=0;" parent="VccjVxZ1QOEAnE4NQ08W-527" vertex="1">
          <mxGeometry x="20" y="14" width="60" height="30" as="geometry" />
        </mxCell>
        <mxCell id="VccjVxZ1QOEAnE4NQ08W-538" value="" style="group" parent="1" vertex="1" connectable="0">
          <mxGeometry x="425" y="400" width="100" height="44" as="geometry" />
        </mxCell>
        <mxCell id="VccjVxZ1QOEAnE4NQ08W-539" value="" style="group" parent="VccjVxZ1QOEAnE4NQ08W-538" vertex="1" connectable="0">
          <mxGeometry width="100" height="20" as="geometry" />
        </mxCell>
        <mxCell id="VccjVxZ1QOEAnE4NQ08W-540" value="" style="endArrow=none;html=1;rounded=0;" parent="VccjVxZ1QOEAnE4NQ08W-539" edge="1">
          <mxGeometry width="50" height="50" relative="1" as="geometry">
            <mxPoint x="20" y="20" as="sourcePoint" />
            <mxPoint x="30" as="targetPoint" />
          </mxGeometry>
        </mxCell>
        <mxCell id="VccjVxZ1QOEAnE4NQ08W-541" value="" style="endArrow=none;html=1;rounded=0;" parent="VccjVxZ1QOEAnE4NQ08W-539" edge="1">
          <mxGeometry width="50" height="50" relative="1" as="geometry">
            <mxPoint x="30" as="sourcePoint" />
            <mxPoint x="40" y="20" as="targetPoint" />
          </mxGeometry>
        </mxCell>
        <mxCell id="VccjVxZ1QOEAnE4NQ08W-542" value="" style="endArrow=none;html=1;rounded=0;" parent="VccjVxZ1QOEAnE4NQ08W-539" edge="1">
          <mxGeometry width="50" height="50" relative="1" as="geometry">
            <mxPoint x="40" y="20" as="sourcePoint" />
            <mxPoint x="50" as="targetPoint" />
          </mxGeometry>
        </mxCell>
        <mxCell id="VccjVxZ1QOEAnE4NQ08W-543" value="" style="endArrow=none;html=1;rounded=0;" parent="VccjVxZ1QOEAnE4NQ08W-539" edge="1">
          <mxGeometry width="50" height="50" relative="1" as="geometry">
            <mxPoint x="50" as="sourcePoint" />
            <mxPoint x="60" y="20" as="targetPoint" />
          </mxGeometry>
        </mxCell>
        <mxCell id="VccjVxZ1QOEAnE4NQ08W-544" value="" style="endArrow=none;html=1;rounded=0;" parent="VccjVxZ1QOEAnE4NQ08W-539" edge="1">
          <mxGeometry width="50" height="50" relative="1" as="geometry">
            <mxPoint x="60" y="20" as="sourcePoint" />
            <mxPoint x="70" as="targetPoint" />
          </mxGeometry>
        </mxCell>
        <mxCell id="VccjVxZ1QOEAnE4NQ08W-545" value="" style="endArrow=none;html=1;rounded=0;" parent="VccjVxZ1QOEAnE4NQ08W-539" edge="1">
          <mxGeometry width="50" height="50" relative="1" as="geometry">
            <mxPoint x="70" as="sourcePoint" />
            <mxPoint x="80" y="20" as="targetPoint" />
          </mxGeometry>
        </mxCell>
        <mxCell id="VccjVxZ1QOEAnE4NQ08W-546" value="" style="endArrow=none;html=1;rounded=0;" parent="VccjVxZ1QOEAnE4NQ08W-539" edge="1">
          <mxGeometry width="50" height="50" relative="1" as="geometry">
            <mxPoint x="20" y="20" as="sourcePoint" />
            <mxPoint y="20" as="targetPoint" />
          </mxGeometry>
        </mxCell>
        <mxCell id="VccjVxZ1QOEAnE4NQ08W-547" value="" style="endArrow=none;html=1;rounded=0;" parent="VccjVxZ1QOEAnE4NQ08W-539" edge="1">
          <mxGeometry width="50" height="50" relative="1" as="geometry">
            <mxPoint x="80" y="20" as="sourcePoint" />
            <mxPoint x="100" y="20" as="targetPoint" />
          </mxGeometry>
        </mxCell>
        <mxCell id="VccjVxZ1QOEAnE4NQ08W-548" value="220Ω" style="text;html=1;align=center;verticalAlign=middle;whiteSpace=wrap;rounded=0;" parent="VccjVxZ1QOEAnE4NQ08W-538" vertex="1">
          <mxGeometry x="20" y="14" width="60" height="30" as="geometry" />
        </mxCell>
        <mxCell id="VccjVxZ1QOEAnE4NQ08W-708" value="" style="endArrow=none;html=1;rounded=0;" parent="1" edge="1">
          <mxGeometry width="50" height="50" relative="1" as="geometry">
            <mxPoint x="790" y="670" as="sourcePoint" />
            <mxPoint x="850" y="670" as="targetPoint" />
          </mxGeometry>
        </mxCell>
        <mxCell id="VccjVxZ1QOEAnE4NQ08W-709" value="" style="group" parent="1" vertex="1" connectable="0">
          <mxGeometry x="20" y="150" width="120" height="120" as="geometry" />
        </mxCell>
        <mxCell id="VccjVxZ1QOEAnE4NQ08W-453" value="" style="rounded=0;whiteSpace=wrap;html=1;" parent="VccjVxZ1QOEAnE4NQ08W-709" vertex="1">
          <mxGeometry width="120" height="120" as="geometry" />
        </mxCell>
        <mxCell id="VccjVxZ1QOEAnE4NQ08W-454" value="DS18B20" style="text;html=1;align=center;verticalAlign=middle;whiteSpace=wrap;rounded=0;" parent="VccjVxZ1QOEAnE4NQ08W-709" vertex="1">
          <mxGeometry x="30" y="45" width="60" height="30" as="geometry" />
        </mxCell>
        <mxCell id="VccjVxZ1QOEAnE4NQ08W-710" value="" style="group" parent="1" vertex="1" connectable="0">
          <mxGeometry x="150" y="580" width="160" height="310" as="geometry" />
        </mxCell>
        <mxCell id="VccjVxZ1QOEAnE4NQ08W-711" value="" style="rounded=0;whiteSpace=wrap;html=1;" parent="VccjVxZ1QOEAnE4NQ08W-710" vertex="1">
          <mxGeometry width="160" height="310" as="geometry" />
        </mxCell>
        <mxCell id="VccjVxZ1QOEAnE4NQ08W-712" value="ESP32" style="text;html=1;align=center;verticalAlign=middle;whiteSpace=wrap;rounded=0;" parent="VccjVxZ1QOEAnE4NQ08W-710" vertex="1">
          <mxGeometry x="40" y="125.25" width="80" height="77.5" as="geometry" />
        </mxCell>
        <mxCell id="VccjVxZ1QOEAnE4NQ08W-714" value="D22" style="text;html=1;align=center;verticalAlign=middle;whiteSpace=wrap;rounded=0;" parent="VccjVxZ1QOEAnE4NQ08W-710" vertex="1">
          <mxGeometry x="100" y="30" width="60" height="20" as="geometry" />
        </mxCell>
        <mxCell id="VccjVxZ1QOEAnE4NQ08W-713" value="D23" style="text;html=1;align=center;verticalAlign=middle;whiteSpace=wrap;rounded=0;" parent="VccjVxZ1QOEAnE4NQ08W-710" vertex="1">
          <mxGeometry x="100" y="12" width="60" height="20" as="geometry" />
        </mxCell>
        <mxCell id="VccjVxZ1QOEAnE4NQ08W-715" value="RX0" style="text;html=1;align=center;verticalAlign=middle;whiteSpace=wrap;rounded=0;" parent="VccjVxZ1QOEAnE4NQ08W-710" vertex="1">
          <mxGeometry x="100" y="68" width="60" height="20" as="geometry" />
        </mxCell>
        <mxCell id="VccjVxZ1QOEAnE4NQ08W-716" value="TX0" style="text;html=1;align=center;verticalAlign=middle;whiteSpace=wrap;rounded=0;" parent="VccjVxZ1QOEAnE4NQ08W-710" vertex="1">
          <mxGeometry x="100" y="50" width="60" height="20" as="geometry" />
        </mxCell>
        <mxCell id="VccjVxZ1QOEAnE4NQ08W-717" value="D19" style="text;html=1;align=center;verticalAlign=middle;whiteSpace=wrap;rounded=0;" parent="VccjVxZ1QOEAnE4NQ08W-710" vertex="1">
          <mxGeometry x="100" y="106" width="60" height="20" as="geometry" />
        </mxCell>
        <mxCell id="VccjVxZ1QOEAnE4NQ08W-718" value="D21" style="text;html=1;align=center;verticalAlign=middle;whiteSpace=wrap;rounded=0;" parent="VccjVxZ1QOEAnE4NQ08W-710" vertex="1">
          <mxGeometry x="100" y="88" width="60" height="20" as="geometry" />
        </mxCell>
        <mxCell id="VccjVxZ1QOEAnE4NQ08W-719" value="D5" style="text;html=1;align=center;verticalAlign=middle;whiteSpace=wrap;rounded=0;" parent="VccjVxZ1QOEAnE4NQ08W-710" vertex="1">
          <mxGeometry x="100" y="144" width="60" height="20" as="geometry" />
        </mxCell>
        <mxCell id="VccjVxZ1QOEAnE4NQ08W-720" value="D18" style="text;html=1;align=center;verticalAlign=middle;whiteSpace=wrap;rounded=0;" parent="VccjVxZ1QOEAnE4NQ08W-710" vertex="1">
          <mxGeometry x="100" y="126" width="60" height="20" as="geometry" />
        </mxCell>
        <mxCell id="VccjVxZ1QOEAnE4NQ08W-721" value="RX2" style="text;html=1;align=center;verticalAlign=middle;whiteSpace=wrap;rounded=0;" parent="VccjVxZ1QOEAnE4NQ08W-710" vertex="1">
          <mxGeometry x="100" y="182" width="60" height="20" as="geometry" />
        </mxCell>
        <mxCell id="VccjVxZ1QOEAnE4NQ08W-722" value="TX2" style="text;html=1;align=center;verticalAlign=middle;whiteSpace=wrap;rounded=0;" parent="VccjVxZ1QOEAnE4NQ08W-710" vertex="1">
          <mxGeometry x="100" y="164" width="60" height="20" as="geometry" />
        </mxCell>
        <mxCell id="VccjVxZ1QOEAnE4NQ08W-723" value="D2" style="text;html=1;align=center;verticalAlign=middle;whiteSpace=wrap;rounded=0;" parent="VccjVxZ1QOEAnE4NQ08W-710" vertex="1">
          <mxGeometry x="100" y="220" width="60" height="20" as="geometry" />
        </mxCell>
        <mxCell id="VccjVxZ1QOEAnE4NQ08W-724" value="D4" style="text;html=1;align=center;verticalAlign=middle;whiteSpace=wrap;rounded=0;" parent="VccjVxZ1QOEAnE4NQ08W-710" vertex="1">
          <mxGeometry x="100" y="202" width="60" height="20" as="geometry" />
        </mxCell>
        <mxCell id="VccjVxZ1QOEAnE4NQ08W-725" value="GND" style="text;html=1;align=center;verticalAlign=middle;whiteSpace=wrap;rounded=0;" parent="VccjVxZ1QOEAnE4NQ08W-710" vertex="1">
          <mxGeometry x="100" y="258" width="60" height="20" as="geometry" />
        </mxCell>
        <mxCell id="VccjVxZ1QOEAnE4NQ08W-726" value="D15" style="text;html=1;align=center;verticalAlign=middle;whiteSpace=wrap;rounded=0;" parent="VccjVxZ1QOEAnE4NQ08W-710" vertex="1">
          <mxGeometry x="100" y="240" width="60" height="20" as="geometry" />
        </mxCell>
        <mxCell id="VccjVxZ1QOEAnE4NQ08W-728" value="3V3" style="text;html=1;align=center;verticalAlign=middle;whiteSpace=wrap;rounded=0;" parent="VccjVxZ1QOEAnE4NQ08W-710" vertex="1">
          <mxGeometry x="100" y="278" width="60" height="20" as="geometry" />
        </mxCell>
        <mxCell id="VccjVxZ1QOEAnE4NQ08W-729" value="VP" style="text;html=1;align=center;verticalAlign=middle;whiteSpace=wrap;rounded=0;" parent="VccjVxZ1QOEAnE4NQ08W-710" vertex="1">
          <mxGeometry y="29" width="60" height="20" as="geometry" />
        </mxCell>
        <mxCell id="VccjVxZ1QOEAnE4NQ08W-730" value="EN" style="text;html=1;align=center;verticalAlign=middle;whiteSpace=wrap;rounded=0;" parent="VccjVxZ1QOEAnE4NQ08W-710" vertex="1">
          <mxGeometry y="11" width="60" height="20" as="geometry" />
        </mxCell>
        <mxCell id="VccjVxZ1QOEAnE4NQ08W-731" value="D34" style="text;html=1;align=center;verticalAlign=middle;whiteSpace=wrap;rounded=0;" parent="VccjVxZ1QOEAnE4NQ08W-710" vertex="1">
          <mxGeometry y="67" width="60" height="20" as="geometry" />
        </mxCell>
        <mxCell id="VccjVxZ1QOEAnE4NQ08W-732" value="VN" style="text;html=1;align=center;verticalAlign=middle;whiteSpace=wrap;rounded=0;" parent="VccjVxZ1QOEAnE4NQ08W-710" vertex="1">
          <mxGeometry y="49" width="60" height="20" as="geometry" />
        </mxCell>
        <mxCell id="VccjVxZ1QOEAnE4NQ08W-733" value="D32" style="text;html=1;align=center;verticalAlign=middle;whiteSpace=wrap;rounded=0;" parent="VccjVxZ1QOEAnE4NQ08W-710" vertex="1">
          <mxGeometry y="105" width="60" height="20" as="geometry" />
        </mxCell>
        <mxCell id="VccjVxZ1QOEAnE4NQ08W-734" value="D35" style="text;html=1;align=center;verticalAlign=middle;whiteSpace=wrap;rounded=0;" parent="VccjVxZ1QOEAnE4NQ08W-710" vertex="1">
          <mxGeometry y="87" width="60" height="20" as="geometry" />
        </mxCell>
        <mxCell id="VccjVxZ1QOEAnE4NQ08W-735" value="D25" style="text;html=1;align=center;verticalAlign=middle;whiteSpace=wrap;rounded=0;" parent="VccjVxZ1QOEAnE4NQ08W-710" vertex="1">
          <mxGeometry y="143" width="60" height="20" as="geometry" />
        </mxCell>
        <mxCell id="VccjVxZ1QOEAnE4NQ08W-736" value="D33" style="text;html=1;align=center;verticalAlign=middle;whiteSpace=wrap;rounded=0;" parent="VccjVxZ1QOEAnE4NQ08W-710" vertex="1">
          <mxGeometry y="125" width="60" height="20" as="geometry" />
        </mxCell>
        <mxCell id="VccjVxZ1QOEAnE4NQ08W-737" value="D27" style="text;html=1;align=center;verticalAlign=middle;whiteSpace=wrap;rounded=0;" parent="VccjVxZ1QOEAnE4NQ08W-710" vertex="1">
          <mxGeometry y="181" width="60" height="20" as="geometry" />
        </mxCell>
        <mxCell id="VccjVxZ1QOEAnE4NQ08W-738" value="D26" style="text;html=1;align=center;verticalAlign=middle;whiteSpace=wrap;rounded=0;" parent="VccjVxZ1QOEAnE4NQ08W-710" vertex="1">
          <mxGeometry y="163" width="60" height="20" as="geometry" />
        </mxCell>
        <mxCell id="VccjVxZ1QOEAnE4NQ08W-739" value="D12" style="text;html=1;align=center;verticalAlign=middle;whiteSpace=wrap;rounded=0;" parent="VccjVxZ1QOEAnE4NQ08W-710" vertex="1">
          <mxGeometry y="219" width="60" height="20" as="geometry" />
        </mxCell>
        <mxCell id="VccjVxZ1QOEAnE4NQ08W-740" value="D14" style="text;html=1;align=center;verticalAlign=middle;whiteSpace=wrap;rounded=0;" parent="VccjVxZ1QOEAnE4NQ08W-710" vertex="1">
          <mxGeometry y="201" width="60" height="20" as="geometry" />
        </mxCell>
        <mxCell id="VccjVxZ1QOEAnE4NQ08W-741" value="GND" style="text;html=1;align=center;verticalAlign=middle;whiteSpace=wrap;rounded=0;" parent="VccjVxZ1QOEAnE4NQ08W-710" vertex="1">
          <mxGeometry y="257" width="60" height="20" as="geometry" />
        </mxCell>
        <mxCell id="VccjVxZ1QOEAnE4NQ08W-742" value="D13" style="text;html=1;align=center;verticalAlign=middle;whiteSpace=wrap;rounded=0;" parent="VccjVxZ1QOEAnE4NQ08W-710" vertex="1">
          <mxGeometry y="239" width="60" height="20" as="geometry" />
        </mxCell>
        <mxCell id="VccjVxZ1QOEAnE4NQ08W-744" value="VIN" style="text;html=1;align=center;verticalAlign=middle;whiteSpace=wrap;rounded=0;" parent="VccjVxZ1QOEAnE4NQ08W-710" vertex="1">
          <mxGeometry y="277" width="60" height="20" as="geometry" />
        </mxCell>
        <mxCell id="VccjVxZ1QOEAnE4NQ08W-745" value="" style="endArrow=none;html=1;rounded=0;exitX=1;exitY=0.5;exitDx=0;exitDy=0;jumpStyle=arc;" parent="1" source="VccjVxZ1QOEAnE4NQ08W-717" edge="1">
          <mxGeometry width="50" height="50" relative="1" as="geometry">
            <mxPoint x="799.8" y="680" as="sourcePoint" />
            <mxPoint x="950" y="700" as="targetPoint" />
          </mxGeometry>
        </mxCell>
        <mxCell id="VccjVxZ1QOEAnE4NQ08W-746" value="" style="endArrow=none;html=1;rounded=0;" parent="1" edge="1">
          <mxGeometry width="50" height="50" relative="1" as="geometry">
            <mxPoint x="950" y="700" as="sourcePoint" />
            <mxPoint x="950" y="670" as="targetPoint" />
          </mxGeometry>
        </mxCell>
        <mxCell id="VccjVxZ1QOEAnE4NQ08W-747" value="" style="endArrow=none;html=1;rounded=0;entryX=1;entryY=0.5;entryDx=0;entryDy=0;jumpStyle=arc;" parent="1" target="VccjVxZ1QOEAnE4NQ08W-726" edge="1">
          <mxGeometry width="50" height="50" relative="1" as="geometry">
            <mxPoint x="760" y="830" as="sourcePoint" />
            <mxPoint x="799.8" y="640" as="targetPoint" />
          </mxGeometry>
        </mxCell>
        <mxCell id="VccjVxZ1QOEAnE4NQ08W-748" value="" style="endArrow=none;html=1;rounded=0;entryX=0.713;entryY=0.997;entryDx=0;entryDy=0;entryPerimeter=0;curved=0;jumpStyle=arc;" parent="1" target="VccjVxZ1QOEAnE4NQ08W-267" edge="1">
          <mxGeometry width="50" height="50" relative="1" as="geometry">
            <mxPoint x="760" y="830" as="sourcePoint" />
            <mxPoint x="760" y="670" as="targetPoint" />
          </mxGeometry>
        </mxCell>
        <mxCell id="VccjVxZ1QOEAnE4NQ08W-750" value="" style="endArrow=none;html=1;rounded=0;entryX=1;entryY=0.5;entryDx=0;entryDy=0;jumpStyle=arc;edgeStyle=orthogonalEdgeStyle;exitX=0.567;exitY=1.019;exitDx=0;exitDy=0;exitPerimeter=0;" parent="1" source="VccjVxZ1QOEAnE4NQ08W-267" target="VccjVxZ1QOEAnE4NQ08W-722" edge="1">
          <mxGeometry width="50" height="50" relative="1" as="geometry">
            <mxPoint x="730" y="760" as="sourcePoint" />
            <mxPoint x="739.43" y="640" as="targetPoint" />
            <Array as="points">
              <mxPoint x="729" y="754" />
            </Array>
          </mxGeometry>
        </mxCell>
        <mxCell id="VccjVxZ1QOEAnE4NQ08W-751" value="" style="endArrow=none;html=1;rounded=0;jumpStyle=arc;" parent="1" edge="1">
          <mxGeometry width="50" height="50" relative="1" as="geometry">
            <mxPoint x="110" y="930" as="sourcePoint" />
            <mxPoint x="700" y="930" as="targetPoint" />
          </mxGeometry>
        </mxCell>
        <mxCell id="VccjVxZ1QOEAnE4NQ08W-752" value="" style="endArrow=none;html=1;rounded=0;" parent="1" edge="1">
          <mxGeometry width="50" height="50" relative="1" as="geometry">
            <mxPoint x="110" y="830" as="sourcePoint" />
            <mxPoint x="110" y="930" as="targetPoint" />
          </mxGeometry>
        </mxCell>
        <mxCell id="VccjVxZ1QOEAnE4NQ08W-753" value="" style="endArrow=none;html=1;rounded=0;entryX=0;entryY=0.5;entryDx=0;entryDy=0;" parent="1" target="VccjVxZ1QOEAnE4NQ08W-742" edge="1">
          <mxGeometry width="50" height="50" relative="1" as="geometry">
            <mxPoint x="110" y="830" as="sourcePoint" />
            <mxPoint x="120" y="940" as="targetPoint" />
          </mxGeometry>
        </mxCell>
        <mxCell id="VccjVxZ1QOEAnE4NQ08W-754" value="" style="endArrow=none;html=1;rounded=0;exitX=1;exitY=0.5;exitDx=0;exitDy=0;jumpStyle=arc;" parent="1" source="VccjVxZ1QOEAnE4NQ08W-721" edge="1">
          <mxGeometry width="50" height="50" relative="1" as="geometry">
            <mxPoint x="740" y="770" as="sourcePoint" />
            <mxPoint x="670" y="770" as="targetPoint" />
          </mxGeometry>
        </mxCell>
        <mxCell id="VccjVxZ1QOEAnE4NQ08W-755" value="" style="endArrow=none;html=1;rounded=0;exitX=1;exitY=0.5;exitDx=0;exitDy=0;" parent="1" source="VccjVxZ1QOEAnE4NQ08W-724" edge="1">
          <mxGeometry width="50" height="50" relative="1" as="geometry">
            <mxPoint x="649.6999999999999" y="680" as="sourcePoint" />
            <mxPoint x="640" y="790" as="targetPoint" />
          </mxGeometry>
        </mxCell>
        <mxCell id="VccjVxZ1QOEAnE4NQ08W-756" value="" style="endArrow=none;html=1;rounded=0;jumpStyle=arc;edgeStyle=orthogonalEdgeStyle;entryX=0.866;entryY=-0.004;entryDx=0;entryDy=0;entryPerimeter=0;" parent="1" target="VccjVxZ1QOEAnE4NQ08W-267" edge="1">
          <mxGeometry width="50" height="50" relative="1" as="geometry">
            <mxPoint x="370" y="440" as="sourcePoint" />
            <mxPoint x="790" y="440" as="targetPoint" />
          </mxGeometry>
        </mxCell>
        <mxCell id="VccjVxZ1QOEAnE4NQ08W-757" value="" style="endArrow=none;html=1;rounded=0;exitX=1;exitY=0.5;exitDx=0;exitDy=0;edgeStyle=orthogonalEdgeStyle;jumpStyle=arc;" parent="1" source="VccjVxZ1QOEAnE4NQ08W-719" edge="1">
          <mxGeometry width="50" height="50" relative="1" as="geometry">
            <mxPoint x="525" y="580" as="sourcePoint" />
            <mxPoint x="370" y="440" as="targetPoint" />
          </mxGeometry>
        </mxCell>
        <mxCell id="VccjVxZ1QOEAnE4NQ08W-759" value="" style="endArrow=none;html=1;rounded=0;jumpStyle=arc;" parent="1" edge="1">
          <mxGeometry width="50" height="50" relative="1" as="geometry">
            <mxPoint x="440" y="460" as="sourcePoint" />
            <mxPoint x="700" y="460" as="targetPoint" />
          </mxGeometry>
        </mxCell>
        <mxCell id="VccjVxZ1QOEAnE4NQ08W-761" value="" style="endArrow=none;html=1;rounded=0;exitX=1;exitY=0.5;exitDx=0;exitDy=0;edgeStyle=orthogonalEdgeStyle;jumpStyle=arc;" parent="1" source="VccjVxZ1QOEAnE4NQ08W-723" edge="1">
          <mxGeometry width="50" height="50" relative="1" as="geometry">
            <mxPoint x="320" y="744" as="sourcePoint" />
            <mxPoint x="440" y="460" as="targetPoint" />
          </mxGeometry>
        </mxCell>
        <mxCell id="VccjVxZ1QOEAnE4NQ08W-762" value="" style="endArrow=none;html=1;rounded=0;entryX=1;entryY=0.5;entryDx=0;entryDy=0;jumpStyle=arc;edgeStyle=orthogonalEdgeStyle;" parent="1" target="VccjVxZ1QOEAnE4NQ08W-720" edge="1">
          <mxGeometry width="50" height="50" relative="1" as="geometry">
            <mxPoint x="670" y="480" as="sourcePoint" />
            <mxPoint x="410" y="660" as="targetPoint" />
          </mxGeometry>
        </mxCell>
        <mxCell id="VccjVxZ1QOEAnE4NQ08W-765" value="" style="endArrow=none;html=1;rounded=0;entryX=1;entryY=0.5;entryDx=0;entryDy=0;edgeStyle=orthogonalEdgeStyle;" parent="1" target="VccjVxZ1QOEAnE4NQ08W-713" edge="1">
          <mxGeometry width="50" height="50" relative="1" as="geometry">
            <mxPoint x="350" y="420" as="sourcePoint" />
            <mxPoint x="230" y="396" as="targetPoint" />
            <Array as="points">
              <mxPoint x="350" y="602" />
            </Array>
          </mxGeometry>
        </mxCell>
        <mxCell id="VccjVxZ1QOEAnE4NQ08W-767" value="" style="endArrow=none;html=1;rounded=0;" parent="1" edge="1">
          <mxGeometry width="50" height="50" relative="1" as="geometry">
            <mxPoint x="350" y="420" as="sourcePoint" />
            <mxPoint x="430" y="420" as="targetPoint" />
          </mxGeometry>
        </mxCell>
        <mxCell id="VccjVxZ1QOEAnE4NQ08W-768" value="" style="endArrow=none;html=1;rounded=0;entryX=1;entryY=0.5;entryDx=0;entryDy=0;" parent="1" target="VccjVxZ1QOEAnE4NQ08W-714" edge="1">
          <mxGeometry width="50" height="50" relative="1" as="geometry">
            <mxPoint x="330" y="620" as="sourcePoint" />
            <mxPoint x="320" y="612" as="targetPoint" />
          </mxGeometry>
        </mxCell>
        <mxCell id="VccjVxZ1QOEAnE4NQ08W-769" value="" style="endArrow=none;html=1;rounded=0;jumpStyle=arc;" parent="1" edge="1">
          <mxGeometry width="50" height="50" relative="1" as="geometry">
            <mxPoint x="330" y="620" as="sourcePoint" />
            <mxPoint x="330" y="380" as="targetPoint" />
          </mxGeometry>
        </mxCell>
        <mxCell id="VccjVxZ1QOEAnE4NQ08W-770" value="" style="endArrow=none;html=1;rounded=0;" parent="1" edge="1">
          <mxGeometry width="50" height="50" relative="1" as="geometry">
            <mxPoint x="330" y="380" as="sourcePoint" />
            <mxPoint x="430" y="380" as="targetPoint" />
          </mxGeometry>
        </mxCell>
        <mxCell id="VccjVxZ1QOEAnE4NQ08W-771" value="" style="endArrow=none;html=1;rounded=0;exitX=1;exitY=0.5;exitDx=0;exitDy=0;edgeStyle=orthogonalEdgeStyle;jumpStyle=arc;" parent="1" source="VccjVxZ1QOEAnE4NQ08W-718" edge="1">
          <mxGeometry width="50" height="50" relative="1" as="geometry">
            <mxPoint x="340" y="630" as="sourcePoint" />
            <mxPoint x="430" y="340" as="targetPoint" />
            <Array as="points">
              <mxPoint x="390" y="678" />
              <mxPoint x="390" y="340" />
            </Array>
          </mxGeometry>
        </mxCell>
        <mxCell id="VccjVxZ1QOEAnE4NQ08W-775" value="+" style="text;html=1;align=center;verticalAlign=middle;whiteSpace=wrap;rounded=0;" parent="1" vertex="1">
          <mxGeometry x="20" y="240" width="60" height="30" as="geometry" />
        </mxCell>
        <mxCell id="VccjVxZ1QOEAnE4NQ08W-776" value="-" style="text;html=1;align=center;verticalAlign=middle;whiteSpace=wrap;rounded=0;" parent="1" vertex="1">
          <mxGeometry x="50" y="241" width="60" height="30" as="geometry" />
        </mxCell>
        <mxCell id="VccjVxZ1QOEAnE4NQ08W-777" value="OUT" style="text;html=1;align=center;verticalAlign=middle;whiteSpace=wrap;rounded=0;" parent="1" vertex="1">
          <mxGeometry x="80" y="241" width="60" height="30" as="geometry" />
        </mxCell>
        <mxCell id="VccjVxZ1QOEAnE4NQ08W-778" value="" style="endArrow=none;html=1;rounded=0;exitX=0;exitY=0.5;exitDx=0;exitDy=0;strokeColor=#000000;jumpStyle=arc;" parent="1" source="VccjVxZ1QOEAnE4NQ08W-741" edge="1">
          <mxGeometry width="50" height="50" relative="1" as="geometry">
            <mxPoint x="160" y="705" as="sourcePoint" />
            <mxPoint x="80" y="850" as="targetPoint" />
          </mxGeometry>
        </mxCell>
        <mxCell id="VccjVxZ1QOEAnE4NQ08W-779" value="" style="endArrow=none;html=1;rounded=0;strokeColor=#FF0000;" parent="1" edge="1">
          <mxGeometry width="50" height="50" relative="1" as="geometry">
            <mxPoint x="50" y="950" as="sourcePoint" />
            <mxPoint x="360" y="950" as="targetPoint" />
          </mxGeometry>
        </mxCell>
        <mxCell id="VccjVxZ1QOEAnE4NQ08W-780" value="" style="endArrow=none;html=1;rounded=0;exitX=1;exitY=0.5;exitDx=0;exitDy=0;strokeColor=#FF0000;edgeStyle=orthogonalEdgeStyle;jumpStyle=arc;" parent="1" source="VccjVxZ1QOEAnE4NQ08W-728" edge="1">
          <mxGeometry width="50" height="50" relative="1" as="geometry">
            <mxPoint x="120" y="840" as="sourcePoint" />
            <mxPoint x="360" y="950" as="targetPoint" />
          </mxGeometry>
        </mxCell>
        <mxCell id="VccjVxZ1QOEAnE4NQ08W-782" value="" style="ellipse;whiteSpace=wrap;html=1;aspect=fixed;" parent="1" vertex="1">
          <mxGeometry x="270" y="990" width="80" height="80" as="geometry" />
        </mxCell>
        <mxCell id="VccjVxZ1QOEAnE4NQ08W-783" value="&lt;font style=&quot;font-size: 29px;&quot;&gt;V&lt;/font&gt;" style="text;html=1;align=center;verticalAlign=middle;whiteSpace=wrap;rounded=0;" parent="1" vertex="1">
          <mxGeometry x="280" y="1020" width="60" height="20" as="geometry" />
        </mxCell>
        <mxCell id="VccjVxZ1QOEAnE4NQ08W-784" value="" style="endArrow=none;html=1;rounded=0;strokeColor=#FF0000;entryX=0;entryY=0.5;entryDx=0;entryDy=0;" parent="1" target="VccjVxZ1QOEAnE4NQ08W-782" edge="1">
          <mxGeometry width="50" height="50" relative="1" as="geometry">
            <mxPoint x="130" y="1030" as="sourcePoint" />
            <mxPoint x="370" y="880" as="targetPoint" />
          </mxGeometry>
        </mxCell>
        <mxCell id="VccjVxZ1QOEAnE4NQ08W-785" value="" style="endArrow=none;html=1;rounded=0;strokeColor=#FF0000;entryX=0;entryY=0.5;entryDx=0;entryDy=0;edgeStyle=orthogonalEdgeStyle;jumpStyle=arc;" parent="1" target="VccjVxZ1QOEAnE4NQ08W-744" edge="1">
          <mxGeometry width="50" height="50" relative="1" as="geometry">
            <mxPoint x="130" y="1030" as="sourcePoint" />
            <mxPoint x="280" y="1040" as="targetPoint" />
            <Array as="points">
              <mxPoint x="130" y="867" />
            </Array>
          </mxGeometry>
        </mxCell>
        <mxCell id="VccjVxZ1QOEAnE4NQ08W-787" value="" style="endArrow=none;html=1;rounded=0;exitX=1;exitY=0.5;exitDx=0;exitDy=0;strokeColor=#000000;edgeStyle=orthogonalEdgeStyle;jumpStyle=arc;entryX=1;entryY=0.5;entryDx=0;entryDy=0;" parent="1" source="VccjVxZ1QOEAnE4NQ08W-725" target="VccjVxZ1QOEAnE4NQ08W-782" edge="1">
          <mxGeometry width="50" height="50" relative="1" as="geometry">
            <mxPoint x="160" y="857" as="sourcePoint" />
            <mxPoint x="390" y="1050" as="targetPoint" />
            <Array as="points">
              <mxPoint x="380" y="848" />
              <mxPoint x="380" y="1030" />
            </Array>
          </mxGeometry>
        </mxCell>
        <mxCell id="VccjVxZ1QOEAnE4NQ08W-790" value="+" style="text;html=1;align=center;verticalAlign=middle;whiteSpace=wrap;rounded=0;" parent="1" vertex="1">
          <mxGeometry x="230" y="1010" width="60" height="20" as="geometry" />
        </mxCell>
        <mxCell id="VccjVxZ1QOEAnE4NQ08W-791" value="-" style="text;html=1;align=center;verticalAlign=middle;whiteSpace=wrap;rounded=0;" parent="1" vertex="1">
          <mxGeometry x="330" y="1010" width="60" height="20" as="geometry" />
        </mxCell>
        <mxCell id="VccjVxZ1QOEAnE4NQ08W-793" value="" style="group" parent="1" vertex="1" connectable="0">
          <mxGeometry x="180" y="150" width="120" height="120" as="geometry" />
        </mxCell>
        <mxCell id="VccjVxZ1QOEAnE4NQ08W-794" value="" style="rounded=0;whiteSpace=wrap;html=1;" parent="VccjVxZ1QOEAnE4NQ08W-793" vertex="1">
          <mxGeometry width="120" height="120" as="geometry" />
        </mxCell>
        <mxCell id="VccjVxZ1QOEAnE4NQ08W-795" value="DHT11" style="text;html=1;align=center;verticalAlign=middle;whiteSpace=wrap;rounded=0;" parent="VccjVxZ1QOEAnE4NQ08W-793" vertex="1">
          <mxGeometry x="30" y="45" width="60" height="30" as="geometry" />
        </mxCell>
        <mxCell id="VccjVxZ1QOEAnE4NQ08W-796" value="+" style="text;html=1;align=center;verticalAlign=middle;whiteSpace=wrap;rounded=0;" parent="1" vertex="1">
          <mxGeometry x="180" y="240" width="60" height="30" as="geometry" />
        </mxCell>
        <mxCell id="VccjVxZ1QOEAnE4NQ08W-797" value="-" style="text;html=1;align=center;verticalAlign=middle;whiteSpace=wrap;rounded=0;" parent="1" vertex="1">
          <mxGeometry x="210" y="241" width="60" height="30" as="geometry" />
        </mxCell>
        <mxCell id="VccjVxZ1QOEAnE4NQ08W-798" value="OUT" style="text;html=1;align=center;verticalAlign=middle;whiteSpace=wrap;rounded=0;" parent="1" vertex="1">
          <mxGeometry x="240" y="241" width="60" height="30" as="geometry" />
        </mxCell>
        <mxCell id="VccjVxZ1QOEAnE4NQ08W-799" value="" style="endArrow=none;html=1;rounded=0;strokeColor=#FF0000;entryX=0.5;entryY=1;entryDx=0;entryDy=0;edgeStyle=orthogonalEdgeStyle;jumpStyle=arc;" parent="1" target="VccjVxZ1QOEAnE4NQ08W-796" edge="1">
          <mxGeometry width="50" height="50" relative="1" as="geometry">
            <mxPoint x="50" y="300" as="sourcePoint" />
            <mxPoint x="59.829999999999984" y="280" as="targetPoint" />
          </mxGeometry>
        </mxCell>
        <mxCell id="VccjVxZ1QOEAnE4NQ08W-800" value="" style="endArrow=none;html=1;rounded=0;strokeColor=#000000;entryX=0.5;entryY=1;entryDx=0;entryDy=0;edgeStyle=orthogonalEdgeStyle;jumpStyle=arc;" parent="1" target="VccjVxZ1QOEAnE4NQ08W-797" edge="1">
          <mxGeometry width="50" height="50" relative="1" as="geometry">
            <mxPoint x="80" y="320" as="sourcePoint" />
            <mxPoint x="89.82999999999998" y="280" as="targetPoint" />
          </mxGeometry>
        </mxCell>
        <mxCell id="VccjVxZ1QOEAnE4NQ08W-801" value="" style="endArrow=none;html=1;rounded=0;exitX=0.5;exitY=1;exitDx=0;exitDy=0;edgeStyle=orthogonalEdgeStyle;entryX=0;entryY=0.25;entryDx=0;entryDy=0;jumpStyle=arc;" parent="1" source="VccjVxZ1QOEAnE4NQ08W-798" target="VccjVxZ1QOEAnE4NQ08W-736" edge="1">
          <mxGeometry width="50" height="50" relative="1" as="geometry">
            <mxPoint x="209.84" y="694" as="sourcePoint" />
            <mxPoint x="270" y="340" as="targetPoint" />
            <Array as="points">
              <mxPoint x="270" y="488" />
              <mxPoint x="130" y="488" />
              <mxPoint x="130" y="710" />
            </Array>
          </mxGeometry>
        </mxCell>
        <mxCell id="VccjVxZ1QOEAnE4NQ08W-803" value="D1" style="text;html=1;align=center;verticalAlign=middle;whiteSpace=wrap;rounded=0;" parent="1" vertex="1">
          <mxGeometry x="610" y="500" width="30" height="20" as="geometry" />
        </mxCell>
        <mxCell id="VccjVxZ1QOEAnE4NQ08W-805" value="A&lt;span style=&quot;color: rgba(0, 0, 0, 0); font-family: monospace; font-size: 0px; text-align: start; text-wrap-mode: nowrap;&quot;&gt;%3CmxGraphModel%3E%3Croot%3E%3CmxCell%20id%3D%220%22%2F%3E%3CmxCell%20id%3D%221%22%20parent%3D%220%22%2F%3E%3CmxCell%20id%3D%222%22%20value%3D%22D1%22%20style%3D%22text%3Bhtml%3D1%3Balign%3Dcenter%3BverticalAlign%3Dmiddle%3BwhiteSpace%3Dwrap%3Brounded%3D0%3B%22%20vertex%3D%221%22%20parent%3D%221%22%3E%3CmxGeometry%20x%3D%22610%22%20y%3D%22500%22%20width%3D%2230%22%20height%3D%2220%22%20as%3D%22geometry%22%2F%3E%3C%2FmxCell%3E%3C%2Froot%3E%3C%2FmxGraphModel%3E&lt;/span&gt;" style="text;html=1;align=center;verticalAlign=middle;whiteSpace=wrap;rounded=0;" parent="1" vertex="1">
          <mxGeometry x="640" y="500" width="30" height="20" as="geometry" />
        </mxCell>
        <mxCell id="VccjVxZ1QOEAnE4NQ08W-806" value="F" style="text;html=1;align=center;verticalAlign=middle;whiteSpace=wrap;rounded=0;" parent="1" vertex="1">
          <mxGeometry x="670" y="500" width="30" height="20" as="geometry" />
        </mxCell>
        <mxCell id="VccjVxZ1QOEAnE4NQ08W-807" value="D2" style="text;html=1;align=center;verticalAlign=middle;whiteSpace=wrap;rounded=0;" parent="1" vertex="1">
          <mxGeometry x="702" y="500" width="30" height="20" as="geometry" />
        </mxCell>
        <mxCell id="VccjVxZ1QOEAnE4NQ08W-808" value="D3" style="text;html=1;align=center;verticalAlign=middle;whiteSpace=wrap;rounded=0;" parent="1" vertex="1">
          <mxGeometry x="732" y="500" width="30" height="20" as="geometry" />
        </mxCell>
        <mxCell id="VccjVxZ1QOEAnE4NQ08W-809" value="B" style="text;html=1;align=center;verticalAlign=middle;whiteSpace=wrap;rounded=0;" parent="1" vertex="1">
          <mxGeometry x="760" y="500" width="30" height="20" as="geometry" />
        </mxCell>
        <mxCell id="VccjVxZ1QOEAnE4NQ08W-810" value="E" style="text;html=1;align=center;verticalAlign=middle;whiteSpace=wrap;rounded=0;" parent="1" vertex="1">
          <mxGeometry x="610" y="630" width="30" height="20" as="geometry" />
        </mxCell>
        <mxCell id="VccjVxZ1QOEAnE4NQ08W-811" value="D" style="text;html=1;align=center;verticalAlign=middle;whiteSpace=wrap;rounded=0;" parent="1" vertex="1">
          <mxGeometry x="640" y="630" width="30" height="20" as="geometry" />
        </mxCell>
        <mxCell id="VccjVxZ1QOEAnE4NQ08W-813" value="C" style="text;html=1;align=center;verticalAlign=middle;whiteSpace=wrap;rounded=0;" parent="1" vertex="1">
          <mxGeometry x="700" y="630" width="30" height="20" as="geometry" />
        </mxCell>
        <mxCell id="VccjVxZ1QOEAnE4NQ08W-814" value="G" style="text;html=1;align=center;verticalAlign=middle;whiteSpace=wrap;rounded=0;" parent="1" vertex="1">
          <mxGeometry x="727" y="630" width="30" height="20" as="geometry" />
        </mxCell>
        <mxCell id="VccjVxZ1QOEAnE4NQ08W-815" value="D4" style="text;html=1;align=center;verticalAlign=middle;whiteSpace=wrap;rounded=0;" parent="1" vertex="1">
          <mxGeometry x="760" y="630" width="30" height="20" as="geometry" />
        </mxCell>
        <mxCell id="VccjVxZ1QOEAnE4NQ08W-816" value="dec" style="text;html=1;align=center;verticalAlign=middle;whiteSpace=wrap;rounded=0;" parent="1" vertex="1">
          <mxGeometry x="672" y="630" width="30" height="20" as="geometry" />
        </mxCell>
        <mxCell id="VccjVxZ1QOEAnE4NQ08W-817" value="" style="group" parent="1" vertex="1" connectable="0">
          <mxGeometry x="110" y="339" width="54.55" height="24" as="geometry" />
        </mxCell>
        <mxCell id="VccjVxZ1QOEAnE4NQ08W-818" value="" style="group" parent="VccjVxZ1QOEAnE4NQ08W-817" vertex="1" connectable="0">
          <mxGeometry width="54.55" height="10.909090909090908" as="geometry" />
        </mxCell>
        <mxCell id="VccjVxZ1QOEAnE4NQ08W-819" value="" style="endArrow=none;html=1;rounded=0;" parent="VccjVxZ1QOEAnE4NQ08W-818" edge="1">
          <mxGeometry width="50" height="50" relative="1" as="geometry">
            <mxPoint x="10.91" y="10.909090909090908" as="sourcePoint" />
            <mxPoint x="16.365" as="targetPoint" />
          </mxGeometry>
        </mxCell>
        <mxCell id="VccjVxZ1QOEAnE4NQ08W-820" value="" style="endArrow=none;html=1;rounded=0;" parent="VccjVxZ1QOEAnE4NQ08W-818" edge="1">
          <mxGeometry width="50" height="50" relative="1" as="geometry">
            <mxPoint x="16.365" as="sourcePoint" />
            <mxPoint x="21.82" y="10.909090909090908" as="targetPoint" />
          </mxGeometry>
        </mxCell>
        <mxCell id="VccjVxZ1QOEAnE4NQ08W-821" value="" style="endArrow=none;html=1;rounded=0;" parent="VccjVxZ1QOEAnE4NQ08W-818" edge="1">
          <mxGeometry width="50" height="50" relative="1" as="geometry">
            <mxPoint x="21.82" y="10.909090909090908" as="sourcePoint" />
            <mxPoint x="27.275" as="targetPoint" />
          </mxGeometry>
        </mxCell>
        <mxCell id="VccjVxZ1QOEAnE4NQ08W-822" value="" style="endArrow=none;html=1;rounded=0;" parent="VccjVxZ1QOEAnE4NQ08W-818" edge="1">
          <mxGeometry width="50" height="50" relative="1" as="geometry">
            <mxPoint x="27.275" as="sourcePoint" />
            <mxPoint x="32.73" y="10.909090909090908" as="targetPoint" />
          </mxGeometry>
        </mxCell>
        <mxCell id="VccjVxZ1QOEAnE4NQ08W-823" value="" style="endArrow=none;html=1;rounded=0;" parent="VccjVxZ1QOEAnE4NQ08W-818" edge="1">
          <mxGeometry width="50" height="50" relative="1" as="geometry">
            <mxPoint x="32.73" y="10.909090909090908" as="sourcePoint" />
            <mxPoint x="38.185" as="targetPoint" />
          </mxGeometry>
        </mxCell>
        <mxCell id="VccjVxZ1QOEAnE4NQ08W-824" value="" style="endArrow=none;html=1;rounded=0;" parent="VccjVxZ1QOEAnE4NQ08W-818" edge="1">
          <mxGeometry width="50" height="50" relative="1" as="geometry">
            <mxPoint x="38.185" as="sourcePoint" />
            <mxPoint x="43.64" y="10.909090909090908" as="targetPoint" />
          </mxGeometry>
        </mxCell>
        <mxCell id="VccjVxZ1QOEAnE4NQ08W-825" value="" style="endArrow=none;html=1;rounded=0;" parent="VccjVxZ1QOEAnE4NQ08W-818" edge="1">
          <mxGeometry width="50" height="50" relative="1" as="geometry">
            <mxPoint x="10.91" y="10.909090909090908" as="sourcePoint" />
            <mxPoint y="10.909090909090908" as="targetPoint" />
          </mxGeometry>
        </mxCell>
        <mxCell id="VccjVxZ1QOEAnE4NQ08W-826" value="" style="endArrow=none;html=1;rounded=0;" parent="VccjVxZ1QOEAnE4NQ08W-818" edge="1">
          <mxGeometry width="50" height="50" relative="1" as="geometry">
            <mxPoint x="43.64" y="10.909090909090908" as="sourcePoint" />
            <mxPoint x="54.55" y="10.909090909090908" as="targetPoint" />
          </mxGeometry>
        </mxCell>
        <mxCell id="VccjVxZ1QOEAnE4NQ08W-827" value="4.7KΩ" style="text;html=1;align=center;verticalAlign=middle;whiteSpace=wrap;rounded=0;" parent="VccjVxZ1QOEAnE4NQ08W-817" vertex="1">
          <mxGeometry x="10.91" y="7.636363636363636" width="32.73" height="16.363636363636363" as="geometry" />
        </mxCell>
        <mxCell id="VccjVxZ1QOEAnE4NQ08W-828" value="" style="endArrow=none;html=1;rounded=0;strokeColor=#FF0000;edgeStyle=orthogonalEdgeStyle;jumpStyle=arc;" parent="1" edge="1">
          <mxGeometry width="50" height="50" relative="1" as="geometry">
            <mxPoint x="50" y="380" as="sourcePoint" />
            <mxPoint x="160" y="350" as="targetPoint" />
            <Array as="points">
              <mxPoint x="170" y="380" />
              <mxPoint x="170" y="350" />
            </Array>
          </mxGeometry>
        </mxCell>
      </root>
    </mxGraphModel>
  </diagram>
</mxfile>
